<?xml version="1.0" standalone="no"?>
<!DOCTYPE svg PUBLIC "-//W3C//DTD SVG 20010904//EN"
 "http://www.w3.org/TR/2001/REC-SVG-20010904/DTD/svg10.dtd">
<svg version="1.0" xmlns="http://www.w3.org/2000/svg"
 width="600.000000pt" height="600.000000pt" viewBox="0 0 600.000000 600.000000"
 preserveAspectRatio="xMidYMid meet">
<metadata>
Created by potrace 1.11, written by Peter Selinger 2001-2013
</metadata>
<g transform="translate(0.000000,600.000000) scale(0.100000,-0.100000)"
fill="#000000" stroke="none">
<path d="M907 2283 c-4 -3 -7 -11 -7 -17 0 -6 5 -5 12 2 6 6 9 14 7 17 -3 3
-9 2 -12 -2z"/>
<path d="M1582 2273 c3 -38 -3 -53 -19 -53 -13 0 -14 -3 -5 -12 7 -7 12 -21
12 -33 0 -12 5 -26 10 -31 12 -12 -6 -74 -21 -74 -5 0 -9 -7 -9 -16 0 -15 -2
-15 -22 -1 -13 8 -23 20 -23 27 0 8 -6 15 -12 18 -16 5 -17 -14 -2 -23 6 -4 8
-13 5 -21 -3 -8 0 -11 8 -8 24 9 29 -17 6 -33 -12 -8 -20 -24 -19 -36 3 -38
-1 -47 -16 -41 -10 4 -15 0 -15 -11 0 -9 5 -13 10 -10 12 7 13 -15 2 -31 -4
-6 -16 -14 -27 -18 -15 -6 -17 -9 -6 -15 15 -10 24 -71 10 -71 -5 0 -9 8 -9
18 -1 29 -24 52 -41 41 -10 -8 -11 -12 -2 -16 10 -3 9 -11 -2 -33 -11 -22 -12
-29 -2 -33 9 -3 7 -10 -5 -23 -11 -11 -18 -13 -18 -6 0 7 -7 12 -16 12 -14 0
-13 2 1 17 16 15 16 18 1 28 -20 15 -20 25 0 39 9 7 17 26 18 44 2 35 -3 39
-23 20 -10 -11 -12 -9 -9 7 2 15 12 21 41 23 35 3 54 22 22 22 -8 0 -15 9 -15
20 0 11 -7 23 -16 27 -8 3 -13 12 -10 20 3 7 -1 16 -9 19 -21 8 -19 18 11 53
27 33 25 38 -7 21 -21 -12 -26 -1 -6 19 10 10 9 11 -5 6 -10 -4 -18 -15 -18
-24 0 -10 -11 -28 -26 -42 -22 -21 -24 -21 -18 -4 4 11 11 26 17 33 7 8 5 12
-6 12 -18 0 -30 43 -21 73 6 20 5 21 -11 7 -16 -14 -17 -12 -14 28 l4 42 -22
-28 c-12 -15 -20 -33 -18 -40 3 -8 2 -19 -2 -25 -4 -7 -8 -19 -8 -27 -1 -8 -2
-25 -3 -37 -1 -13 -6 -23 -12 -23 -5 0 -7 7 -3 16 4 12 1 15 -13 12 -11 -2
-20 -13 -22 -26 -2 -12 -8 -22 -13 -22 -14 0 -11 16 10 53 17 31 18 33 0 33
-17 0 -42 -50 -51 -101 -5 -30 -23 -24 -26 8 -3 23 -7 27 -25 21 -12 -3 -47
-30 -77 -60 -31 -30 -59 -54 -63 -54 -14 0 -6 43 13 67 15 20 20 22 20 9 0
-10 5 -14 11 -11 6 4 8 13 5 20 -2 7 -2 16 2 20 4 4 7 10 7 13 1 4 6 17 13 30
20 35 -3 26 -37 -15 l-30 -38 9 33 c5 19 15 41 22 50 11 13 11 15 -3 10 -12
-5 -15 -1 -13 17 1 13 6 29 10 36 5 9 2 10 -10 6 -10 -4 -16 -2 -15 6 4 32 -1
38 -17 22 -15 -15 -15 -17 1 -29 21 -15 14 -46 -11 -46 -11 0 -14 5 -10 18 4
9 -5 4 -18 -13 -22 -26 -24 -27 -19 -7 4 17 2 21 -10 16 -14 -5 -14 -9 2 -40
20 -37 17 -74 -5 -74 -8 0 -17 -14 -21 -30 -3 -17 -11 -34 -17 -38 -19 -12
-56 -9 -56 5 0 17 -20 16 -43 -1 -16 -12 -15 -15 9 -39 23 -24 24 -26 7 -36
-22 -13 -8 -14 16 -2 10 6 27 7 39 4 17 -4 20 -9 12 -23 -8 -16 -6 -19 18 -22
20 -2 28 -9 30 -27 2 -13 0 -21 -6 -17 -15 9 -63 -12 -88 -39 -14 -16 -34 -25
-52 -25 -18 0 -36 -9 -48 -22 -11 -13 -12 -17 -3 -11 13 11 37 16 113 26 12 1
20 -5 22 -17 1 -10 7 -23 13 -29 15 -15 14 -29 -3 -52 -12 -16 -16 -17 -30 -6
-18 15 -21 11 -30 -52 -5 -37 -4 -39 20 -33 19 5 26 2 33 -16 5 -13 7 -26 5
-29 -2 -4 3 -10 12 -13 13 -5 14 -9 4 -21 -7 -8 -16 -12 -21 -9 -5 3 -9 0 -9
-5 0 -6 9 -11 19 -11 31 0 33 -16 6 -34 -23 -15 -30 -13 -26 8 1 5 -5 6 -14 2
-9 -3 -19 -6 -21 -6 -2 0 -4 -10 -4 -21 0 -18 -2 -19 -15 -9 -9 8 -13 21 -9
32 6 19 5 19 -19 3 -17 -11 -27 -28 -29 -48 l-3 -32 -6 28 c-4 19 -1 35 13 52
l19 25 -40 17 c-40 17 -51 35 -31 48 24 15 9 27 -25 21 -35 -7 -35 -7 -35 31
0 27 -3 34 -10 23 -5 -8 -10 -12 -12 -10 -2 3 -8 14 -14 25 -7 11 -18 19 -27
19 -9 -1 -20 14 -27 37 -7 21 -17 36 -22 33 -5 -3 -6 -15 -3 -26 4 -11 1 -27
-7 -36 -18 -21 -23 -88 -8 -97 8 -5 5 -11 -7 -20 -17 -12 -16 -14 11 -21 24
-6 26 -8 12 -16 -23 -13 -21 -48 4 -48 27 0 25 -6 -10 -41 -25 -26 -33 -28
-51 -19 -14 8 -19 18 -16 31 7 28 -11 23 -25 -6 -8 -18 -8 -28 1 -39 7 -8 9
-21 5 -27 -5 -8 -3 -9 6 -4 7 4 30 9 51 11 34 3 38 1 44 -26 5 -21 11 -27 22
-23 13 5 13 3 4 -15 -11 -20 -10 -21 14 -12 15 6 29 10 32 10 10 0 -7 -110
-20 -130 -16 -26 -24 -25 -31 5 -8 31 -24 32 -35 3 l-8 -21 -16 23 c-9 13 -14
27 -11 32 3 4 1 8 -5 8 -6 0 -15 -9 -21 -20 -13 -24 -30 -26 -30 -5 0 8 -4 15
-10 15 -5 0 -10 -4 -10 -10 0 -19 -19 -10 -26 13 -7 21 -7 21 -14 2 -4 -11 -4
-24 1 -30 14 -14 11 -45 -6 -51 -8 -3 -22 1 -30 10 -9 9 -23 16 -31 16 -21 0
-17 -28 4 -34 24 -8 46 -49 40 -73 -3 -10 2 -25 11 -33 14 -14 14 -15 -6 -18
-38 -5 -65 -54 -57 -101 4 -27 3 -41 -4 -41 -6 0 -9 6 -6 13 7 20 -24 43 -38
29 -16 -16 -29 -15 -22 2 8 20 -14 30 -31 16 -12 -10 -15 -8 -17 11 0 13 -1
30 -1 37 1 8 -6 10 -19 6 -13 -4 -18 -2 -14 4 3 5 0 15 -7 21 -11 8 -13 5 -9
-18 2 -16 -1 -32 -7 -35 -8 -5 -11 -144 -11 -467 l0 -459 3000 0 3000 0 0 912
c0 851 -2 912 -18 925 -16 14 -16 14 1 9 27 -8 20 7 -13 29 -27 18 -28 21 -13
37 15 17 15 18 -5 18 -15 0 -20 -5 -16 -14 3 -8 -4 -23 -15 -33 -12 -9 -21
-27 -22 -38 0 -11 -3 -14 -6 -8 -7 18 -54 6 -75 -19 -10 -11 -18 -15 -18 -9 0
6 -5 11 -10 11 -6 0 -10 -8 -8 -17 2 -10 -2 -17 -10 -15 -18 3 -80 -30 -64
-35 6 -3 12 -13 12 -23 0 -16 -3 -17 -25 -7 -14 7 -25 18 -25 25 0 6 -9 12
-20 12 -11 0 -20 -4 -20 -10 0 -5 7 -10 16 -10 8 0 12 -4 9 -10 -4 -6 -16 -3
-33 8 -14 9 -23 12 -19 6 4 -8 -2 -9 -21 -6 -18 4 -21 7 -10 10 9 2 16 12 15
23 -1 12 -6 18 -15 14 -7 -3 -18 -5 -23 -5 -6 0 -7 -4 -4 -10 3 -5 -1 -10 -9
-10 -15 0 -17 -10 -18 -80 -1 -3 2 -17 6 -32 5 -22 3 -28 -9 -28 -12 0 -15 6
-10 20 5 15 3 18 -9 14 -9 -3 -12 -12 -9 -21 4 -11 2 -14 -5 -9 -18 11 -10 46
11 46 10 0 16 4 13 9 -3 5 -19 7 -35 5 -22 -3 -29 0 -25 10 3 8 -3 16 -15 19
-22 5 -40 -8 -19 -15 6 -2 8 -10 4 -16 -10 -17 -26 -15 -26 3 0 8 -4 15 -10
15 -12 0 -12 -6 0 -52 6 -20 18 -39 28 -41 12 -3 13 -5 2 -6 -21 -1 -33 8 -68
57 -20 28 -33 39 -38 31 -5 -9 -10 -7 -19 5 -11 15 -13 14 -18 -6 -6 -21 -7
-21 -26 -4 -14 13 -20 14 -24 4 -2 -7 -8 -1 -12 15 -4 15 -12 27 -17 27 -6 0
-8 9 -5 20 7 26 4 25 -35 -10 -18 -16 -35 -30 -39 -30 -12 0 -20 33 -10 39 6
4 7 11 3 16 -10 14 -32 17 -32 5 0 -6 3 -10 8 -10 4 0 8 -15 9 -33 2 -27 1
-29 -9 -13 -8 15 -12 16 -19 5 -7 -11 -9 -10 -9 4 0 9 -4 17 -9 17 -5 0 -13 9
-16 20 -3 11 -15 25 -26 31 -17 9 -19 7 -14 -13 4 -17 0 -29 -14 -42 -11 -10
-17 -23 -15 -30 3 -7 -3 -19 -12 -27 -13 -11 -18 -11 -21 -1 -3 6 -9 10 -14 6
-9 -5 -13 9 -9 35 1 9 -4 12 -15 7 -9 -3 -14 -2 -11 3 3 5 -4 11 -15 14 -15 4
-20 11 -16 21 4 10 1 16 -8 16 -8 0 -15 -7 -15 -15 0 -8 -4 -15 -9 -15 -21 0
-41 13 -41 27 0 8 -5 11 -10 8 -7 -4 -7 -12 0 -25 7 -13 1 -35 -26 -89 -35
-68 -54 -85 -70 -60 -5 8 -10 6 -16 -5 -14 -24 -30 -20 -23 7 6 18 5 20 -6 10
-24 -24 -29 -13 -10 21 24 42 12 68 -16 33 -24 -31 -79 -36 -62 -6 7 13 6 19
-2 19 -6 0 -8 7 -5 17 4 9 1 20 -6 24 -10 7 -11 12 -1 28 11 17 10 19 -3 14
-10 -4 -17 2 -21 16 -9 33 -24 25 -20 -12 2 -18 6 -37 9 -42 6 -10 -35 -65
-48 -65 -3 0 -4 13 -1 29 8 37 -18 52 -27 15 -4 -13 -11 -24 -16 -24 -6 0 -10
-7 -10 -15 0 -8 -4 -15 -10 -15 -10 0 -14 40 -10 87 2 31 -10 49 -21 32 -6
-10 -9 -11 -9 -1 0 6 -5 12 -10 12 -6 0 -8 -11 -4 -25 4 -15 2 -25 -5 -25 -15
0 -14 -20 4 -54 17 -32 20 -60 6 -51 -5 3 -21 0 -35 -7 -29 -13 -28 -33 6 -78
10 -14 20 -46 22 -71 4 -41 40 -155 55 -171 4 -5 5 21 3 57 -3 48 -1 65 9 65
7 0 10 -3 7 -6 -7 -7 20 -93 35 -112 7 -9 3 -20 -13 -37 -13 -14 -26 -22 -29
-17 -7 9 -51 11 -51 2 0 -3 9 -11 20 -18 24 -15 25 -35 5 -66 l-16 -24 -39 19
c-22 11 -40 24 -40 30 0 6 -9 9 -20 6 -15 -4 -20 0 -20 13 0 11 -5 22 -11 25
-6 4 -8 13 -5 20 2 7 -1 18 -7 24 -8 8 -7 16 6 28 11 11 17 13 17 5 0 -7 7
-12 15 -12 8 0 15 -7 15 -15 0 -8 9 -15 20 -15 11 0 20 -4 20 -10 0 -5 7 -10
16 -10 12 0 11 6 -8 29 -13 17 -29 30 -35 30 -7 1 -13 6 -13 11 0 22 -2 26
-22 48 -26 27 -34 28 -41 2 -3 -11 -1 -18 4 -14 5 3 9 -4 9 -15 0 -12 -4 -21
-9 -21 -14 0 -24 32 -22 68 2 31 1 33 -17 23 -19 -10 -20 -13 -5 -42 14 -28
14 -32 -3 -50 -28 -31 -35 -22 -28 32 6 42 4 51 -7 47 -8 -2 -15 -19 -17 -36
-2 -18 -7 -32 -12 -32 -10 0 -22 33 -18 50 2 7 -3 15 -9 17 -7 3 -13 -2 -13
-11 0 -8 -12 -27 -27 -41 -27 -25 -27 -27 11 -29 23 -1 34 -26 12 -26 -18 0
-21 -31 -7 -58 7 -14 4 -17 -15 -17 -13 0 -24 2 -24 5 -1 3 -3 29 -6 58 -6 57
9 112 31 112 15 0 45 32 45 49 0 7 -6 11 -12 8 -7 -2 -19 3 -25 12 -11 14 -14
14 -22 1 -6 -8 -8 -25 -5 -37 4 -15 0 -25 -15 -32 -11 -7 -20 -15 -20 -19 1
-4 1 -17 0 -30 -1 -31 -21 -18 -21 14 0 16 -4 23 -11 18 -6 -3 -15 0 -20 7
-16 25 -10 38 17 36 34 -3 42 18 13 33 -19 10 -25 8 -46 -14 -13 -14 -26 -26
-28 -26 -13 0 -2 19 32 55 29 32 36 47 34 75 -1 19 -7 37 -13 41 -18 11 -38
-2 -38 -25 0 -12 -12 -29 -30 -41 -16 -11 -30 -25 -30 -31 0 -7 -16 -24 -35
-38 -19 -15 -35 -25 -35 -22 0 18 26 56 38 56 10 0 13 8 10 30 -4 23 2 36 29
62 38 37 41 54 11 63 -16 6 -26 1 -39 -16 -15 -20 -21 -21 -28 -10 -10 15 -5
34 17 68 12 20 16 21 29 8 17 -18 29 -19 38 -4 4 6 -2 13 -14 16 -30 8 -26 21
15 45 32 19 34 23 18 28 -24 9 -42 2 -49 -18 -2 -10 -14 -23 -25 -30 -18 -11
-20 -10 -20 19 0 27 -2 30 -15 19 -8 -7 -15 -18 -15 -24 0 -6 -13 -20 -30 -29
-28 -17 -29 -17 -40 2 -7 13 -7 28 0 46 12 32 12 35 1 35 -10 0 -27 -39 -23
-53 1 -4 -4 -17 -12 -28 -10 -15 -12 -29 -5 -52 8 -29 5 -42 -9 -42 -26 -1
-72 -30 -72 -46 0 -11 -4 -19 -10 -19 -13 0 -13 27 0 35 6 4 8 10 5 15 -3 4
-6 26 -7 48 -1 27 -5 39 -14 35 -19 -7 -24 9 -26 86 -1 39 -5 71 -10 71 -4 0
-8 -8 -8 -18 0 -10 -5 -23 -11 -29 -8 -8 -7 -26 3 -66 9 -34 11 -63 6 -78 -5
-12 -5 -25 0 -28 15 -10 22 -40 15 -71 -4 -25 -9 -29 -25 -24 -16 5 -19 2 -16
-18 2 -15 9 -23 21 -22 9 1 17 -5 17 -14 0 -15 2 -14 17 1 13 13 14 19 5 29
-15 15 -16 28 -2 28 16 0 29 -43 19 -61 -5 -10 -2 -21 11 -32 12 -10 17 -23
13 -38 -5 -17 -3 -20 7 -14 9 5 11 4 6 -4 -4 -6 -11 -9 -16 -6 -5 3 -11 1 -15
-5 -14 -23 -27 -9 -22 25 3 20 2 33 -3 30 -4 -3 -11 2 -14 11 -7 17 -28 9 -24
-9 2 -7 -2 -13 -7 -15 -6 -2 -12 5 -14 15 -4 25 -21 44 -32 37 -5 -3 -9 -1 -9
5 0 5 5 13 10 16 18 11 11 35 -10 35 -21 0 -27 15 -10 25 6 4 8 10 5 15 -3 5
3 13 12 19 13 7 23 5 35 -6 17 -15 18 -14 18 10 0 14 -5 29 -10 32 -8 5 -8 11
0 20 7 8 7 16 2 19 -15 9 -33 -19 -27 -40 4 -12 2 -11 -6 4 -19 34 -41 28 -38
-11 4 -42 -8 -62 -26 -47 -8 6 -11 18 -9 25 4 8 -3 15 -17 17 -27 4 -45 54
-27 75 6 7 8 17 4 21 -4 4 -12 -1 -17 -10 -5 -10 -16 -15 -24 -12 -19 8 -31
70 -16 88 9 10 9 16 1 21 -19 11 -78 -7 -162 -50 -23 -11 -27 -11 -32 2 -8 21
-29 11 -37 -18 -6 -20 -7 -18 -6 11 1 40 -8 60 -26 60 -7 0 -19 9 -27 20 -14
19 -14 19 -27 0 -8 -11 -11 -25 -8 -30 3 -6 0 -10 -9 -10 -8 0 -16 5 -18 12
-3 8 -11 9 -24 3 -27 -12 -54 -14 -60 -3 -7 11 -24 0 -24 -16 0 -7 14 -17 31
-22 23 -7 34 -18 44 -46 7 -21 10 -39 8 -42 -9 -8 -33 6 -33 19 0 8 -5 17 -11
21 -14 8 -29 -14 -22 -32 2 -7 -4 -18 -16 -25 -15 -10 -17 -17 -9 -26 11 -13
3 -51 -9 -39 -6 6 -23 -18 -42 -61 -6 -13 -15 -23 -21 -23 -6 0 -14 10 -19 23
-10 26 23 81 44 73 7 -2 16 2 19 10 4 10 -2 14 -19 14 -15 0 -26 -7 -30 -20
-3 -11 -10 -20 -15 -20 -5 0 -7 6 -4 13 2 7 0 24 -5 38 -9 23 -10 22 -12 -11
-1 -19 -2 -41 -2 -47 1 -7 -3 -10 -8 -7 -5 3 -9 13 -9 23 0 10 -8 21 -19 24
-16 4 -17 1 -10 -27 5 -17 11 -48 14 -68 3 -21 10 -38 15 -38 17 0 11 -26 -11
-54 -15 -19 -25 -24 -32 -17 -8 8 -4 18 11 34 27 29 28 37 2 37 -11 0 -27 12
-36 26 -12 18 -19 22 -25 13 -4 -7 -3 -21 2 -30 6 -12 5 -20 -2 -25 -7 -4 -8
-20 -4 -41 4 -24 3 -33 -4 -28 -6 3 -11 1 -11 -4 0 -6 5 -11 11 -11 5 0 7 -5
4 -11 -4 -6 1 -16 11 -23 11 -8 15 -21 11 -35 -4 -16 -1 -21 15 -21 14 0 19
-6 16 -22 -2 -13 -7 -22 -11 -20 -4 1 -15 -4 -23 -13 -21 -21 -35 -19 -41 5
-7 28 -28 20 -29 -11 -2 -55 -3 -58 -31 -55 -16 2 -34 -1 -41 -7 -9 -7 -11 -6
-6 7 3 9 1 22 -5 30 -6 7 -8 16 -4 20 10 9 13 36 4 36 -4 0 -12 -5 -18 -11
-20 -20 -27 30 -8 51 16 18 16 19 -4 32 -25 15 -26 24 -6 62 14 26 14 28 -3
21 -9 -4 -28 -10 -41 -13 -23 -5 -24 -3 -18 34 3 21 8 47 12 57 7 16 5 17 -21
5 -16 -6 -30 -12 -30 -13 -1 0 -5 -11 -9 -23 -6 -22 -5 -23 16 -12 21 12 22
11 15 -21 -7 -38 -26 -63 -26 -36 0 22 -9 22 -26 0 -8 -11 -13 -13 -14 -5 0
20 -20 14 -20 -7 0 -10 -9 -29 -21 -42 l-20 -24 5 28 c4 15 2 27 -4 27 -17 0
-11 36 10 55 21 19 28 41 9 29 -7 -4 -27 -8 -46 -10 -29 -2 -32 0 -22 12 19
23 5 26 -22 6 -13 -11 -30 -17 -36 -15 -7 3 -16 -3 -20 -13 -3 -9 -20 -30 -37
-46 -17 -17 -30 -38 -28 -48 4 -25 -10 -31 -33 -13 -20 14 -20 14 0 29 11 8
19 22 17 31 -2 11 1 14 12 10 9 -4 16 -2 16 3 0 6 -7 10 -15 10 -8 0 -15 6
-15 14 0 8 7 16 15 20 8 3 15 10 15 16 0 5 -7 10 -15 10 -8 0 -15 5 -15 11 0
6 8 8 18 5 12 -4 26 1 37 14 19 21 19 21 -10 10 -21 -8 -31 -8 -33 -1 -2 7
-10 8 -21 2 -9 -5 -23 -6 -31 -1 -10 6 -5 19 24 59 43 58 67 76 83 60 7 -7 13
-7 17 -1 4 6 -3 17 -14 25 -11 7 -17 17 -13 20 3 4 3 7 -1 7 -4 0 -17 -11 -29
-23 -25 -27 -99 -48 -77 -22 10 12 9 20 -4 39 -19 30 -14 46 24 75 17 12 30
26 30 30 0 18 -28 5 -53 -24 -23 -27 -26 -28 -27 -10 -1 14 -7 9 -21 -19 -16
-30 -23 -36 -30 -25 -5 8 -9 23 -10 34 0 15 -4 12 -15 -12 -17 -39 -31 -48
-49 -33 -10 9 -14 7 -18 -7 -4 -14 -5 -13 -6 5 0 12 -5 22 -10 22 -5 0 -7 9
-4 20 4 14 0 20 -11 20 -9 0 -16 -4 -16 -9 0 -10 -76 -8 -87 2 -4 4 15 27 43
51 27 24 46 47 41 52 -4 4 -13 -1 -21 -11 -15 -20 -52 -14 -41 7 4 7 -2 2 -13
-11 l-19 -24 -26 23 -26 23 19 38 c11 21 21 46 23 56 1 10 10 29 20 43 19 27
22 45 7 35 -28 -17 -3 17 46 63 30 29 54 58 52 64 -2 6 -24 -10 -48 -36 -36
-38 -45 -44 -53 -31 -4 8 -12 13 -18 10 -18 -11 -9 36 12 65 13 17 20 37 16
49 -3 12 3 31 15 46 11 15 18 28 15 31 -7 7 -46 -49 -58 -86 -19 -52 -32 -36
-25 30 5 39 3 60 -3 60 -6 0 -10 -8 -9 -17z m-692 -173 c0 -16 -4 -30 -9 -30
-14 0 -20 37 -8 49 16 16 17 14 17 -19z m367 -23 c4 -30 2 -37 -10 -37 -11 0
-14 5 -10 16 3 9 1 19 -5 23 -6 4 -9 17 -5 30 8 30 22 14 30 -32z m-76 -64 c7
-10 10 -15 6 -12 -5 4 -24 3 -43 -1 -39 -9 -45 0 -11 16 31 16 33 16 48 -3z
m-327 -35 c3 -24 9 -60 12 -80 7 -42 -8 -52 -26 -18 -6 11 -16 17 -22 14 -8
-5 -9 4 -5 28 3 20 1 40 -3 44 -15 15 0 54 20 54 13 0 19 -11 24 -42z m156 22
c0 -5 -5 -10 -11 -10 -5 0 -7 5 -4 10 3 6 8 10 11 10 2 0 4 -4 4 -10z m270
-39 c0 -24 -12 -32 -30 -21 -11 7 -11 11 -1 24 18 22 31 20 31 -3z m-300 -17
c0 -8 -4 -14 -8 -14 -4 0 -8 9 -8 19 0 11 4 17 8 15 4 -3 8 -12 8 -20z m-48
-46 c-6 -6 -15 -7 -22 -3 -8 5 -6 13 7 27 16 18 18 19 21 3 2 -9 -1 -22 -6
-27z m628 17 c0 -14 -8 -29 -19 -35 -28 -14 -38 -12 -16 3 10 8 15 19 11 25
-8 14 0 32 15 32 5 0 9 -11 9 -25z m-250 -55 c0 -11 -7 -20 -15 -20 -15 0 -21
21 -8 33 12 13 23 7 23 -13z m4622 -34 c-2 -4 5 -5 17 -1 13 4 21 2 21 -5 0
-8 -10 -10 -25 -8 -14 3 -25 1 -25 -4 0 -5 -5 -6 -11 -2 -8 4 -8 9 0 17 6 6
11 20 12 32 0 20 0 20 8 0 5 -11 6 -24 3 -29z m-4832 24 c0 -5 -5 -10 -11 -10
-5 0 -7 5 -4 10 3 6 8 10 11 10 2 0 4 -4 4 -10z m448 -7 c-2 -12 -11 -17 -24
-15 -18 2 -20 -2 -16 -27 3 -19 9 -28 17 -25 11 4 10 -3 -1 -36 -23 -66 -54
-121 -65 -115 -5 4 -6 11 -3 17 4 5 8 38 11 71 2 34 8 66 13 71 6 6 10 22 10
37 0 18 6 29 18 32 34 9 43 7 40 -10z m-629 -12 c12 -21 5 -32 -15 -24 -16 6
-19 43 -4 43 5 0 14 -8 19 -19z m81 15 c0 -3 -4 -8 -10 -11 -5 -3 -10 -1 -10
4 0 6 5 11 10 11 6 0 10 -2 10 -4z m4855 -26 c3 -5 -1 -10 -10 -10 -9 0 -13 5
-10 10 3 6 8 10 10 10 2 0 7 -4 10 -10z m35 -11 c0 -5 -4 -9 -10 -9 -5 0 -10
7 -10 16 0 8 5 12 10 9 6 -3 10 -10 10 -16z m-4762 -11 c-6 -18 -25 -20 -31
-3 -5 10 0 15 14 15 12 0 19 -5 17 -12z m4726 -14 c3 -8 2 -12 -4 -9 -6 3 -10
10 -10 16 0 14 7 11 14 -7z m-4568 -21 c-10 -10 -19 5 -10 18 6 11 8 11 12 0
2 -7 1 -15 -2 -18z m4544 -24 c0 -10 -5 -21 -11 -25 -8 -4 -7 -9 2 -15 11 -7
10 -9 -3 -9 -10 0 -18 7 -18 15 0 8 5 15 10 15 6 0 10 7 10 15 0 16 -29 10
-42 -9 -5 -7 -8 -6 -8 3 0 8 7 23 17 33 19 21 43 8 43 -23z m-4220 22 c0 -6
-4 -13 -10 -16 -5 -3 -10 1 -10 9 0 9 5 16 10 16 6 0 10 -4 10 -9z m4290 -6
c11 -13 10 -14 -4 -9 -9 3 -16 10 -16 15 0 13 6 11 20 -6z m35 5 c3 -5 1 -10
-4 -10 -6 0 -11 5 -11 10 0 6 2 10 4 10 3 0 8 -4 11 -10z m-2697 -50 c2 -33
-1 -50 -9 -50 -7 0 -10 13 -7 35 2 19 1 35 -4 35 -4 0 -5 7 -2 15 11 28 19 15
22 -35z m-2438 20 c0 -5 -4 -10 -10 -10 -5 0 -10 5 -10 10 0 6 5 10 10 10 6 0
10 -4 10 -10z m4750 0 c0 -5 -5 -10 -11 -10 -5 0 -7 5 -4 10 3 6 8 10 11 10 2
0 4 -4 4 -10z m-4462 -26 c2 -1 -6 -7 -17 -14 -19 -10 -21 -8 -21 16 0 24 2
25 18 13 9 -7 19 -14 20 -15z m487 16 c-3 -5 -15 -15 -26 -21 -19 -10 -20 -9
-9 10 6 12 18 21 26 21 8 0 12 -4 9 -10z m4310 0 c3 -5 1 -10 -4 -10 -6 0 -11
5 -11 10 0 6 2 10 4 10 3 0 8 -4 11 -10z m-4249 -8 c6 -4 16 -17 22 -28 9 -17
8 -25 -6 -38 -13 -11 -21 -13 -29 -5 -7 7 -25 -6 -58 -45 -60 -69 -69 -73 -73
-30 -3 42 38 111 72 124 13 5 27 14 31 19 7 13 25 14 41 3z m3931 -14 c-3 -8
-6 -5 -6 6 -1 11 2 17 5 13 3 -3 4 -12 1 -19z m43 -18 c0 -13 -1 -13 -10 0 -5
8 -10 22 -10 30 0 13 1 13 10 0 5 -8 10 -22 10 -30z m25 30 c3 -5 2 -10 -4
-10 -5 0 -13 5 -16 10 -3 6 -2 10 4 10 5 0 13 -4 16 -10z m68 -10 c3 -11 1
-20 -4 -20 -5 0 -9 9 -9 20 0 11 2 20 4 20 2 0 6 -9 9 -20z m-1923 0 c0 -5 -5
-10 -11 -10 -5 0 -7 5 -4 10 3 6 8 10 11 10 2 0 4 -4 4 -10z m1360 -10 c0 -11
-5 -20 -11 -20 -6 0 -8 -9 -4 -22 4 -18 2 -17 -10 5 -13 22 -14 31 -4 43 16
20 29 17 29 -6z m-2076 -5 c-4 -8 -8 -15 -10 -15 -2 0 -4 7 -4 15 0 8 4 15 10
15 5 0 7 -7 4 -15z m1429 -35 c-8 -9 -21 24 -15 39 5 12 8 10 12 -9 4 -14 5
-27 3 -30z m507 40 c0 -5 -4 -10 -10 -10 -5 0 -10 5 -10 10 0 6 5 10 10 10 6
0 10 -4 10 -10z m-3308 -22 c-7 -7 -12 -8 -12 -2 0 6 3 14 7 17 3 4 9 5 12 2
2 -3 -1 -11 -7 -17z m2048 12 c0 -5 -5 -10 -11 -10 -5 0 -7 5 -4 10 3 6 8 10
11 10 2 0 4 -4 4 -10z m-2312 -26 c1 -12 -5 -25 -14 -28 -12 -5 -14 -1 -9 15
5 14 3 19 -4 15 -6 -4 -9 -2 -5 7 8 22 30 16 32 -9z m4130 5 c9 -12 9 -16 -1
-16 -7 0 -14 9 -14 20 -1 11 -1 18 0 16 2 -2 8 -11 15 -20z m-3818 -35 c0 -19
-5 -34 -11 -34 -6 0 -9 6 -6 14 3 7 1 18 -5 24 -13 13 -2 46 12 37 5 -3 10
-22 10 -41z m3547 18 c-23 -26 -49 -26 -34 0 7 10 18 16 24 13 7 -2 13 1 13 7
0 6 3 8 7 5 3 -4 -1 -15 -10 -25z m160 -12 c1 -22 -2 -38 -7 -35 -5 3 -6 13
-3 21 4 10 1 15 -8 14 -27 -4 -40 0 -34 10 4 6 11 8 16 5 5 -4 12 1 15 9 11
28 20 17 21 -24z m-1717 21 c0 -6 -5 -13 -11 -16 -6 -4 -8 -12 -6 -19 3 -7 -4
-23 -15 -37 -11 -13 -18 -17 -15 -9 2 8 0 26 -5 39 -5 15 -4 28 3 37 13 16 49
19 49 5z m1510 5 c0 -3 -4 -8 -10 -11 -5 -3 -10 -1 -10 4 0 6 5 11 10 11 6 0
10 -2 10 -4z m95 -6 c3 -5 -1 -10 -10 -10 -9 0 -13 5 -10 10 3 6 8 10 10 10 2
0 7 -4 10 -10z m-3505 -9 c0 -13 -29 -35 -37 -28 -7 8 15 37 28 37 5 0 9 -4 9
-9z m3850 5 c0 -11 -19 -15 -25 -6 -3 5 1 10 9 10 9 0 16 -2 16 -4z m-1233
-31 c-7 -13 -14 -20 -15 -14 -5 14 6 39 17 39 5 0 4 -11 -2 -25z m-2761 -10
c3 -14 13 -29 21 -34 12 -6 13 -12 5 -27 -8 -13 -11 -15 -12 -4 0 11 -3 11
-12 2 -18 -18 -24 -15 -43 24 -13 28 -14 38 -5 50 19 22 39 17 46 -11z m3661
7 c9 -15 8 -19 -2 -19 -8 0 -16 9 -18 19 -3 10 -2 18 2 18 3 0 11 -8 18 -18z
m-3458 -9 c-12 -15 -12 -16 3 -10 14 5 17 2 15 -13 -2 -11 -6 -22 -10 -25 -4
-3 -5 -2 -2 1 7 11 -24 36 -36 29 -6 -4 -5 2 3 14 7 12 19 21 27 21 11 0 11
-3 0 -17z m76 7 c-3 -5 -12 -10 -18 -10 -7 0 -6 4 3 10 19 12 23 12 15 0z
m945 0 c0 -5 -4 -10 -10 -10 -5 0 -10 5 -10 10 0 6 5 10 10 10 6 0 10 -4 10
-10z m1442 -25 c6 -31 -11 -45 -19 -16 -3 12 -10 21 -15 21 -6 0 -5 6 2 15 16
19 26 12 32 -20z m943 25 c-3 -5 -14 -10 -23 -10 -15 0 -15 2 -2 10 20 13 33
13 25 0z m272 4 c-3 -3 -12 -4 -19 -1 -8 3 -5 6 6 6 11 1 17 -2 13 -5z m-4477
-8 c0 -2 -8 -10 -17 -17 -16 -13 -17 -12 -4 4 13 16 21 21 21 13z m528 -24 c2
-16 -4 -25 -22 -32 -14 -5 -26 -14 -26 -20 0 -13 6 -13 29 0 19 9 71 -7 71
-22 0 -5 7 -8 15 -8 8 0 16 -6 16 -12 1 -7 3 -24 4 -38 2 -16 -7 -34 -24 -51
-40 -39 -58 -43 -64 -11 -3 15 -1 31 4 37 11 11 12 25 1 25 -10 0 -37 -50 -34
-62 1 -5 -3 -8 -8 -8 -5 0 -10 4 -10 9 0 13 -58 19 -71 7 -9 -8 -10 -5 -6 12
5 20 2 23 -14 19 -15 -4 -19 -2 -15 10 3 8 6 19 6 24 0 18 83 99 101 99 11 0
19 5 19 11 0 5 -4 7 -10 4 -14 -9 -12 9 2 23 17 17 32 10 36 -16z m2183 -1
c-28 -31 -40 -26 -21 8 6 12 19 21 29 21 16 0 15 -4 -8 -29z m679 19 c0 -5 -5
-10 -11 -10 -5 0 -7 5 -4 10 3 6 8 10 11 10 2 0 4 -4 4 -10z m1050 6 c0 -3 -4
-8 -10 -11 -5 -3 -10 -1 -10 4 0 6 5 11 10 11 6 0 10 -2 10 -4z m-4404 -32
c-4 -9 -9 -15 -11 -12 -3 3 -3 13 1 22 4 9 9 15 11 12 3 -3 3 -13 -1 -22z
m-265 6 c10 -6 19 -17 19 -25 0 -19 -14 -19 -30 0 -7 9 -20 13 -28 10 -12 -4
-13 -3 -2 10 15 18 16 18 41 5z m2789 -4 c0 -16 -18 -31 -27 -22 -8 8 5 36 17
36 5 0 10 -6 10 -14z m954 -7 c-3 -5 -10 -7 -15 -3 -5 3 -7 10 -3 15 3 5 10 7
15 3 5 -3 7 -10 3 -15z m1071 11 c3 -5 1 -10 -4 -10 -6 0 -11 5 -11 10 0 6 2
10 4 10 3 0 8 -4 11 -10z m-328 -26 c-9 -9 -28 6 -21 18 4 6 10 6 17 -1 6 -6
8 -13 4 -17z m-4369 -3 c3 -8 -1 -12 -9 -9 -7 2 -15 10 -17 17 -3 8 1 12 9 9
7 -2 15 -10 17 -17z m103 -4 c-13 -13 -26 -3 -16 12 3 6 11 8 17 5 6 -4 6 -10
-1 -17z m2529 -33 c0 -13 -4 -25 -9 -29 -12 -7 -33 64 -24 78 9 14 33 -22 33
-49z m880 41 c-7 -8 -16 -15 -20 -15 -4 0 -10 7 -14 15 -4 11 2 15 21 15 21 0
24 -2 13 -15z m-4030 -3 c0 -13 -12 -22 -22 -16 -10 6 -1 24 13 24 5 0 9 -4 9
-8z m770 -6 c0 -3 -4 -8 -10 -11 -5 -3 -10 -1 -10 4 0 6 5 11 10 11 6 0 10 -2
10 -4z m649 1 c-2 -1 -13 -9 -24 -17 -19 -14 -19 -14 -6 3 7 9 18 17 24 17 6
0 8 -1 6 -3z m1483 -32 c-4 -26 -22 -35 -22 -12 0 10 18 37 26 37 1 0 -1 -11
-4 -25z m331 -42 c-7 -18 -11 -20 -25 -9 -16 12 -15 15 5 47 21 34 22 34 25 9
2 -14 -1 -35 -5 -47z m-3162 31 c6 -8 8 -14 3 -14 -5 0 -3 -4 5 -9 8 -5 9 -11
3 -15 -10 -6 -62 37 -62 53 0 13 37 2 51 -15z m486 -11 c-3 -3 -11 -2 -17 2
-8 5 -7 11 2 22 12 15 13 14 16 -1 2 -10 1 -20 -1 -23z m865 15 c-7 -7 -12 -8
-12 -2 0 6 3 14 7 17 3 4 9 5 12 2 2 -3 -1 -11 -7 -17z m938 18 c0 -3 -4 -8
-10 -11 -5 -3 -10 -1 -10 4 0 6 5 11 10 11 6 0 10 -2 10 -4z m288 -26 c-2 -6
-8 -6 -18 0 -13 9 -13 11 0 20 15 10 25 0 18 -20z m767 11 c-3 -6 -11 -11 -17
-11 -6 0 -6 6 2 15 14 17 26 13 15 -4z m535 15 c0 -3 -4 -8 -10 -11 -5 -3 -10
-1 -10 4 0 6 5 11 10 11 6 0 10 -2 10 -4z m-3050 -20 c0 -2 -7 -7 -16 -10 -8
-3 -12 -2 -9 4 6 10 25 14 25 6z m3000 -6 c0 -5 -2 -10 -4 -10 -3 0 -8 5 -11
10 -3 6 -1 10 4 10 6 0 11 -4 11 -10z m-2530 -15 c0 -8 -4 -15 -10 -15 -5 0
-7 7 -4 15 4 8 8 15 10 15 2 0 4 -7 4 -15z m70 -5 c0 -5 -5 -10 -11 -10 -5 0
-7 5 -4 10 3 6 8 10 11 10 2 0 4 -4 4 -10z m-831 -14 c9 -11 9 -16 0 -22 -8
-4 -9 -3 -5 4 4 7 1 12 -9 12 -9 0 -13 5 -10 10 8 13 10 13 24 -4z m3357 -1
c-6 -18 7 -19 36 -4 30 16 33 4 9 -43 -14 -29 -17 -44 -10 -49 8 -4 8 -12 1
-25 -9 -16 -12 -14 -27 15 -9 18 -14 39 -11 47 3 8 2 14 -3 14 -4 0 -8 14 -9
30 0 17 4 30 10 30 5 0 8 -7 4 -15z m-3051 -4 c3 -5 1 -12 -5 -16 -5 -3 -10 1
-10 9 0 18 6 21 15 7z m495 -5 c0 -17 -54 -76 -70 -76 -13 0 -8 10 28 58 26
34 42 41 42 18z m100 5 c0 -14 -18 -23 -31 -15 -8 4 -7 9 2 15 18 11 29 11 29
0z m-1130 -8 c0 -5 -4 -14 -9 -22 -11 -17 -32 -5 -24 14 5 15 33 21 33 8z
m120 -18 c0 -14 -4 -25 -10 -25 -11 0 -14 33 -3 43 11 11 13 8 13 -18z m225
-6 c-6 -16 -9 -18 -16 -8 -4 8 -3 19 3 26 15 18 21 9 13 -18z m-639 -26 c-3
-4 -14 1 -24 10 -15 16 -15 19 -2 27 11 7 17 4 24 -10 5 -11 6 -23 2 -27z
m357 27 c6 -24 -24 -44 -53 -35 -18 6 -19 8 -4 31 20 29 50 31 57 4z m2380 5
c-3 -9 -8 -14 -10 -11 -3 3 -2 9 2 15 9 16 15 13 8 -4z m552 -14 c-2 -4 -14
-7 -27 -5 -34 4 -35 5 -13 13 22 9 48 3 40 -8z m-475 -1 c0 -5 -5 -10 -11 -10
-5 0 -7 5 -4 10 3 6 8 10 11 10 2 0 4 -4 4 -10z m-2060 -20 c0 -10 -31 -23
-38 -15 -8 7 19 35 29 29 5 -3 9 -9 9 -14z m650 -20 c-8 -5 -17 -7 -19 -4 -3
3 1 9 9 14 8 5 17 7 19 4 3 -3 -1 -9 -9 -14z m1480 9 c0 -5 -4 -8 -9 -5 -5 4
-12 0 -14 -6 -3 -8 -6 -6 -6 5 -1 9 6 17 14 17 8 0 15 -5 15 -11z m-2592 -11
c-2 -6 -10 -14 -16 -16 -7 -2 -10 2 -6 12 7 18 28 22 22 4z m1818 -15 c-10
-10 -19 5 -10 18 6 11 8 11 12 0 2 -7 1 -15 -2 -18z m148 -2 c-4 -20 -2 -30
10 -34 20 -8 21 -27 1 -27 -9 0 -18 -7 -21 -15 -10 -26 -27 -17 -20 11 5 17 3
23 -4 19 -15 -9 -8 39 9 59 21 25 31 19 25 -13z m1904 17 c-6 -18 -28 -21 -28
-4 0 9 7 16 16 16 9 0 14 -5 12 -12z m-3798 -25 c0 -16 -4 -23 -8 -17 -4 6
-15 13 -25 17 -22 8 -13 27 14 27 14 0 19 -7 19 -27z m80 17 c0 -5 -5 -10 -11
-10 -5 0 -7 5 -4 10 3 6 8 10 11 10 2 0 4 -4 4 -10z m335 -46 c17 -75 14 -98
-13 -102 -14 -2 -24 3 -28 15 -3 10 -10 26 -15 36 -7 13 -7 23 1 32 6 7 13 26
15 42 2 15 4 30 4 31 1 2 6 2 13 0 6 -2 17 -26 23 -54z m1027 34 c-7 -7 -12
-8 -12 -2 0 6 3 14 7 17 3 4 9 5 12 2 2 -3 -1 -11 -7 -17z m1290 0 c-7 -7 -12
-8 -12 -2 0 14 12 26 19 19 2 -3 -1 -11 -7 -17z m-2862 2 c0 -5 -5 -10 -11
-10 -5 0 -7 5 -4 10 3 6 8 10 11 10 2 0 4 -4 4 -10z m1100 -16 c0 -20 -4 -25
-16 -20 -9 3 -20 6 -26 6 -6 0 -3 9 7 20 24 27 35 25 35 -6z m1710 18 c0 -12
-30 -52 -39 -52 -15 0 -22 32 -10 46 12 15 49 19 49 6z m-3105 -16 c17 -12 16
-14 -18 -18 -23 -2 -37 0 -37 7 0 27 26 32 55 11z m655 11 c0 -2 -10 -12 -22
-23 l-23 -19 19 23 c18 21 26 27 26 19z m530 0 c0 -2 -16 -19 -36 -38 l-35
-34 15 30 c9 16 23 33 33 37 23 9 23 9 23 5z m75 -14 c-15 -77 -17 -79 -26
-55 -4 12 -15 22 -24 22 -25 0 -17 17 18 34 17 8 33 16 34 16 0 0 0 -8 -2 -17z
m2805 -34 c0 -6 7 -9 15 -5 10 4 15 -1 15 -15 0 -11 -10 -23 -22 -28 -13 -5
-32 -18 -42 -30 -18 -20 -18 -21 -1 -21 10 0 24 8 31 18 12 16 12 16 11 -3 -1
-11 3 -19 9 -18 7 1 10 -6 7 -17 -3 -11 -12 -20 -19 -20 -16 0 -19 -16 -4 -25
11 -7 -25 -85 -39 -85 -18 0 -20 44 -3 64 11 12 13 20 6 23 -6 2 -18 9 -26 16
-14 11 -14 16 0 47 8 19 17 41 18 48 1 8 10 22 19 32 13 14 13 19 3 23 -8 4
-7 6 5 6 9 1 17 -4 17 -10z m-2620 -9 c0 -5 -5 -10 -11 -10 -5 0 -7 5 -4 10 3
6 8 10 11 10 2 0 4 -4 4 -10z m1587 -45 c-1 0 -12 -9 -25 -19 l-22 -19 11 34
c21 65 21 65 30 35 5 -17 7 -30 6 -31z m619 27 c-17 -16 -18 -16 -5 5 7 12 15
20 18 17 3 -2 -3 -12 -13 -22z m-2925 -8 c7 -21 6 -31 -6 -44 -8 -9 -15 -22
-15 -28 0 -7 -8 -12 -19 -12 -32 0 -34 49 -3 81 15 14 28 27 30 28 1 0 7 -11
13 -25z m429 6 c0 -5 -5 -10 -11 -10 -5 0 -7 5 -4 10 3 6 8 10 11 10 2 0 4 -4
4 -10z m530 -24 c-14 -14 -24 0 -16 21 6 15 8 15 16 3 6 -9 5 -19 0 -24z
m1652 12 c-7 -7 -12 -8 -12 -2 0 14 12 26 19 19 2 -3 -1 -11 -7 -17z m663 -10
c-10 -45 -26 -60 -23 -23 1 28 14 55 25 55 3 0 2 -15 -2 -32z m-1625 6 c0 -8
-4 -12 -10 -9 -5 3 -10 10 -10 16 0 5 5 9 10 9 6 0 10 -7 10 -16z m1556 -59
c-23 -25 -26 -26 -26 -8 0 10 5 24 12 31 7 7 8 12 4 12 -5 0 -2 7 5 16 12 15
14 14 22 -3 7 -15 3 -27 -17 -48z m-2812 40 c-4 -8 -11 -12 -16 -9 -6 4 -5 10
3 15 19 12 19 11 13 -6z m466 5 c0 -5 -5 -10 -11 -10 -5 0 -7 5 -4 10 3 6 8
10 11 10 2 0 4 -4 4 -10z m-1080 -20 c0 -5 -4 -10 -10 -10 -5 0 -10 5 -10 10
0 6 5 10 10 10 6 0 10 -4 10 -10z m829 -4 c9 -11 7 -15 -8 -19 -22 -5 -31 0
-31 20 0 17 24 17 39 -1z m1755 -27 c-3 -6 0 -15 7 -20 7 -4 10 -11 6 -15 -12
-13 -34 27 -29 54 4 21 6 22 14 8 5 -9 6 -21 2 -27z m261 -9 c-10 -11 -20 -18
-23 -15 -3 3 3 14 13 25 10 11 20 18 23 15 3 -3 -3 -14 -13 -25z m-1809 -8
c-18 -16 -18 -16 -6 6 6 13 14 21 18 18 3 -4 -2 -14 -12 -24z m134 24 c0 -2
-7 -7 -16 -10 -8 -3 -12 -2 -9 4 6 10 25 14 25 6z m2286 -97 c-2 -77 -32 -51
-42 36 -1 11 5 31 14 45 l16 25 7 -32 c3 -17 6 -51 5 -74z m-2639 49 c-3 -7
-5 -2 -5 12 0 14 2 19 5 13 2 -7 2 -19 0 -25z m2057 17 c-6 -16 -24 -21 -24
-7 0 11 11 22 21 22 5 0 6 -7 3 -15z m-2205 -9 c11 -13 0 -66 -15 -66 -3 0 -4
6 -1 14 6 15 -19 30 -34 20 -15 -9 -10 8 8 28 19 22 27 22 42 4z m1241 -1 c11
-13 10 -14 -4 -9 -9 3 -16 10 -16 15 0 13 6 11 20 -6z m-2360 -37 c0 -4 -7 -8
-15 -8 -10 0 -15 10 -15 28 1 26 1 26 15 8 8 -11 15 -23 15 -28z m3840 38 c0
-3 -4 -8 -10 -11 -5 -3 -10 -1 -10 4 0 6 5 11 10 11 6 0 10 -2 10 -4z m223
-20 c-10 -13 -20 -19 -22 -13 -2 5 4 16 15 24 26 19 27 16 7 -11z m-3431 -18
c-6 -6 -16 -7 -23 -3 -9 6 -7 12 7 22 21 15 34 -1 16 -19z m2750 -3 c-3 -5 -7
-4 -9 2 -3 7 -12 9 -21 6 -15 -6 -15 -4 -4 10 11 13 17 14 27 4 7 -7 10 -16 7
-22z m338 31 c0 -3 -4 -8 -10 -11 -5 -3 -10 -1 -10 4 0 6 5 11 10 11 6 0 10
-2 10 -4z m-1315 -16 c3 -5 1 -10 -4 -10 -6 0 -11 5 -11 10 0 6 2 10 4 10 3 0
8 -4 11 -10z m775 6 c0 -3 -4 -8 -10 -11 -5 -3 -10 -1 -10 4 0 6 5 11 10 11 6
0 10 -2 10 -4z m270 -4 c0 -5 -7 -17 -15 -28 -14 -18 -14 -18 -15 9 0 17 5 27
15 27 8 0 15 -4 15 -8z m390 -54 c0 -16 -3 -19 -11 -11 -6 6 -8 16 -5 22 11
17 16 13 16 -11z m-3167 6 c3 -4 -2 -18 -11 -32 -16 -25 -16 -26 1 -19 14 5
17 1 17 -23 0 -24 -4 -30 -21 -30 -14 0 -19 6 -18 18 2 9 -3 27 -10 40 -10 18
-10 26 0 38 12 15 31 18 42 8z m-673 -24 c6 -11 8 -25 5 -30 -8 -13 -35 -13
-35 0 0 6 -9 10 -20 10 -23 0 -26 10 -8 28 18 18 46 14 58 -8z m3282 -2 c-7
-7 -12 -8 -12 -2 0 14 12 26 19 19 2 -3 -1 -11 -7 -17z m-3165 -15 c11 -10 22
-25 25 -34 5 -12 1 -15 -17 -11 -16 3 -22 9 -18 19 5 12 1 14 -16 8 -21 -6
-22 -5 -12 14 14 25 13 25 38 4z m3934 -4 c8 -15 8 -24 0 -32 -8 -8 -11 -5
-11 9 0 11 -5 25 -12 32 -9 9 -9 12 0 12 6 0 16 -9 23 -21z m-3441 2 c0 -12
-20 -25 -27 -18 -7 7 6 27 18 27 5 0 9 -4 9 -9z m1460 -1 c0 -5 -5 -10 -11
-10 -5 0 -7 5 -4 10 3 6 8 10 11 10 2 0 4 -4 4 -10z m260 -39 c0 -5 -7 -11
-14 -14 -10 -4 -13 -1 -9 9 6 15 23 19 23 5z m-2140 -16 c0 -8 -2 -15 -4 -15
-2 0 -6 7 -10 15 -3 8 -1 15 4 15 6 0 10 -7 10 -15z m1290 5 c0 -5 -2 -10 -4
-10 -3 0 -8 5 -11 10 -3 6 -1 10 4 10 6 0 11 -4 11 -10z m1640 -10 c0 -5 -5
-10 -11 -10 -5 0 -7 5 -4 10 3 6 8 10 11 10 2 0 4 -4 4 -10z m883 -20 c-3 -11
-9 -20 -14 -20 -11 0 -11 3 -3 24 9 23 23 20 17 -4z m57 -7 c0 -26 -25 -63
-42 -63 -18 0 -7 28 15 34 20 6 21 7 5 20 -13 10 -15 15 -6 24 19 19 28 14 28
-15z m-820 13 c0 -3 -4 -8 -10 -11 -5 -3 -10 -1 -10 4 0 6 5 11 10 11 6 0 10
-2 10 -4z m875 -6 c-3 -5 -11 -10 -16 -10 -6 0 -7 5 -4 10 3 6 11 10 16 10 6
0 7 -4 4 -10z m-938 -32 c-3 -7 -5 -2 -5 12 0 14 2 19 5 13 2 -7 2 -19 0 -25z
m-1219 10 c-2 -6 -10 -14 -16 -16 -7 -2 -10 2 -6 12 7 18 28 22 22 4z m112 -4
c0 -14 -3 -15 -17 -3 -10 7 -20 15 -22 16 -2 2 5 3 17 3 14 0 22 -6 22 -16z
m817 -26 c-3 -8 -6 -5 -6 6 -1 11 2 17 5 13 3 -3 4 -12 1 -19z m1269 10 c4 4
2 -1 -5 -10 -9 -12 -10 -18 -2 -18 6 0 11 -7 11 -16 0 -10 -6 -14 -15 -10 -8
3 -19 -2 -24 -12 -5 -9 -13 -14 -17 -10 -4 4 -1 14 5 22 7 8 10 20 6 26 -4 6
-4 18 -1 27 5 11 10 13 20 4 7 -6 17 -7 22 -3z m-3496 -30 c0 -18 -2 -20 -9
-8 -6 8 -7 18 -5 22 9 14 14 9 14 -14z m58 -10 c7 -10 3 -18 -14 -31 -13 -10
-24 -13 -24 -8 0 5 4 12 10 16 5 3 7 12 3 20 -6 18 11 20 25 3z m1492 -14 c0
-8 -4 -12 -10 -9 -5 3 -10 10 -10 16 0 5 5 9 10 9 6 0 10 -7 10 -16z m140 6
c0 -5 -5 -10 -11 -10 -5 0 -7 5 -4 10 3 6 8 10 11 10 2 0 4 -4 4 -10z m-2170
-16 c0 -8 -5 -12 -10 -9 -6 4 -8 11 -5 16 9 14 15 11 15 -7z m145 -4 c3 -5 1
-10 -4 -10 -6 0 -11 5 -11 10 0 6 2 10 4 10 3 0 8 -4 11 -10z m1265 -3 c0 -8
-11 -19 -25 -25 -25 -12 -25 -12 -9 13 18 27 34 33 34 12z m-1352 -35 c-2 -40
-8 -45 -29 -26 -22 19 -24 35 -8 51 18 18 39 3 37 -25z m1896 23 c-6 -16 -24
-21 -24 -7 0 11 11 22 21 22 5 0 6 -7 3 -15z m1878 -27 c-7 -7 -12 -8 -12 -2
0 14 12 26 19 19 2 -3 -1 -11 -7 -17z m-1872 -8 c0 -5 -4 -10 -10 -10 -5 0
-10 5 -10 10 0 6 5 10 10 10 6 0 10 -4 10 -10z m623 -10 c-9 -11 -19 -17 -21
-15 -6 6 18 35 29 35 5 0 1 -9 -8 -20z m317 -4 c0 -3 -4 -8 -10 -11 -5 -3 -10
-1 -10 4 0 6 5 11 10 11 6 0 10 -2 10 -4z m960 -26 c0 -5 -5 -10 -11 -10 -5 0
-7 5 -4 10 3 6 8 10 11 10 2 0 4 -4 4 -10z m77 -17 c-9 -9 -19 -14 -22 -11 -3
3 2 13 11 22 9 9 19 14 22 11 3 -3 -2 -13 -11 -22z m-3944 -8 c-3 -9 -8 -14
-10 -11 -3 3 -2 9 2 15 9 16 15 13 8 -4z m2097 -16 c0 -24 -23 -21 -28 4 -2
10 3 17 12 17 10 0 16 -9 16 -21z m489 -34 c14 -8 14 -52 1 -60 -5 -3 -10 1
-10 9 0 9 -4 16 -10 16 -5 0 -10 9 -10 20 0 11 -7 23 -16 27 -15 6 -15 8 2 20
16 12 19 11 26 -6 3 -10 11 -22 17 -26z m1371 0 c-10 -12 -14 -12 -27 0 -20
21 -7 38 18 24 16 -8 18 -13 9 -24z m-1627 -10 c-7 -21 -13 -19 -13 6 0 11 4
18 10 14 5 -3 7 -12 3 -20z m1587 -19 c0 -6 -7 -1 -15 10 -8 10 -15 23 -15 28
0 6 7 1 15 -10 8 -10 15 -23 15 -28z m90 10 c0 -13 -9 -34 -19 -47 l-19 -24
-7 37 c-8 43 -1 58 26 58 13 0 19 -7 19 -24z m-1730 -11 c0 -9 -6 -12 -15 -9
-8 4 -12 10 -9 15 8 14 24 10 24 -6z m1790 -19 c0 -3 -4 -8 -10 -11 -5 -3 -10
-1 -10 4 0 6 5 11 10 11 6 0 10 -2 10 -4z m-156 -68 c-6 -19 -7 -19 -16 -4 -5
9 -14 13 -20 10 -6 -4 -9 -3 -6 2 3 5 8 17 11 27 6 17 8 17 23 3 10 -10 13
-24 8 -38z m213 -24 c3 -8 1 -25 -5 -37 -6 -12 -12 -29 -14 -39 -2 -13 -9 -11
-37 12 l-34 29 28 25 c32 30 53 33 62 10z m-7 -350 c0 -8 -5 -12 -10 -9 -6 4
-8 11 -5 16 9 14 15 11 15 -7z"/>
<path d="M1534 1645 c-10 -8 -14 -14 -9 -15 15 0 40 18 34 24 -3 3 -14 -1 -25
-9z"/>
<path d="M1190 2207 c-8 -7 -24 -24 -35 -37 -12 -15 -4 -11 18 9 33 31 42 42
35 41 -2 0 -10 -6 -18 -13z"/>
<path d="M980 2170 c-6 -12 -9 -24 -7 -27 3 -2 11 5 17 17 6 12 9 24 7 27 -3
2 -11 -5 -17 -17z"/>
<path d="M1038 2159 c-18 -17 -25 -26 -16 -19 9 6 23 8 29 4 7 -4 9 -3 5 4 -3
6 2 15 11 21 10 5 15 12 11 16 -3 4 -21 -8 -40 -26z"/>
<path d="M1654 2126 c-18 -14 -18 -15 4 -13 12 1 22 7 22 14 0 16 -2 16 -26
-1z"/>
<path d="M765 2090 c-3 -5 -1 -10 4 -10 6 0 11 5 11 10 0 6 -2 10 -4 10 -3 0
-8 -4 -11 -10z"/>
<path d="M5670 2040 c0 -5 5 -10 11 -10 5 0 7 5 4 10 -3 6 -8 10 -11 10 -2 0
-4 -4 -4 -10z"/>
<path d="M5636 1997 c3 -10 9 -15 12 -12 3 3 0 11 -7 18 -10 9 -11 8 -5 -6z"/>
<path d="M5695 1980 c3 -5 8 -10 11 -10 2 0 4 5 4 10 0 6 -5 10 -11 10 -5 0
-7 -4 -4 -10z"/>
<path d="M5856 1977 c3 -10 9 -15 12 -12 3 3 0 11 -7 18 -10 9 -11 8 -5 -6z"/>
<path d="M5910 1983 c8 -4 22 -14 31 -25 19 -21 56 -24 56 -5 0 9 -9 13 -23
11 -13 -1 -28 4 -35 12 -6 8 -19 14 -28 13 -13 0 -14 -2 -1 -6z"/>
<path d="M1670 1970 c-9 -6 -10 -10 -3 -10 6 0 15 5 18 10 8 12 4 12 -15 0z"/>
<path d="M5820 1961 c0 -6 5 -13 10 -16 6 -3 10 1 10 9 0 9 -4 16 -10 16 -5 0
-10 -4 -10 -9z"/>
<path d="M5790 1920 c-9 -6 -10 -10 -3 -10 6 0 15 5 18 10 8 12 4 12 -15 0z"/>
<path d="M5628 1913 c7 -3 16 -2 19 1 4 3 -2 6 -13 5 -11 0 -14 -3 -6 -6z"/>
<path d="M5835 1910 c-3 -5 1 -10 9 -10 9 0 16 -4 16 -10 0 -5 9 -10 20 -10
12 0 20 7 20 18 0 15 -2 15 -10 2 -9 -13 -12 -13 -24 3 -15 19 -22 21 -31 7z"/>
<path d="M5972 1901 c-11 -6 -9 -9 6 -13 15 -4 19 -2 15 8 -6 16 -4 16 -21 5z"/>
<path d="M728 1893 c7 -3 16 -2 19 1 4 3 -2 6 -13 5 -11 0 -14 -3 -6 -6z"/>
<path d="M5665 1879 c-4 -6 -5 -12 -2 -15 2 -3 7 2 10 11 7 17 1 20 -8 4z"/>
<path d="M5710 1879 c0 -5 5 -7 10 -4 6 3 10 8 10 11 0 2 -4 4 -10 4 -5 0 -10
-5 -10 -11z"/>
<path d="M5794 1878 c-16 -19 -25 -48 -16 -48 20 0 40 26 33 43 -6 15 -9 16
-17 5z"/>
<path d="M5827 1883 c-3 -5 1 -14 9 -21 12 -10 14 -10 14 2 0 17 -16 30 -23
19z"/>
<path d="M1739 1863 c-13 -16 -12 -17 4 -4 9 7 17 15 17 17 0 8 -8 3 -21 -13z"/>
<path d="M3440 1869 c0 -5 5 -7 10 -4 6 3 10 8 10 11 0 2 -4 4 -10 4 -5 0 -10
-5 -10 -11z"/>
<path d="M5278 1848 c-3 -7 -2 -21 1 -30 6 -17 7 -17 18 1 10 15 9 22 -1 30
-10 9 -15 8 -18 -1z"/>
<path d="M5613 1838 c-2 -16 1 -18 10 -9 7 7 8 14 1 21 -6 6 -10 2 -11 -12z"/>
<path d="M5695 1850 c3 -6 -1 -7 -9 -4 -23 9 -19 -8 8 -34 14 -12 27 -18 30
-13 3 5 0 11 -8 14 -9 4 -12 14 -9 26 3 13 1 21 -6 21 -7 0 -9 -4 -6 -10z"/>
<path d="M5745 1850 c-3 -5 -2 -10 4 -10 5 0 13 5 16 10 3 6 2 10 -4 10 -5 0
-13 -4 -16 -10z"/>
<path d="M698 1836 c-24 -17 -23 -32 2 -39 21 -6 28 9 8 16 -10 3 -10 7 1 20
16 20 12 21 -11 3z"/>
<path d="M5490 1836 c0 -17 16 -30 23 -19 3 5 -1 14 -9 21 -12 10 -14 10 -14
-2z"/>
<path d="M5352 1809 c1 -17 4 -25 8 -18 7 10 2 49 -5 49 -2 0 -3 -14 -3 -31z"/>
<path d="M3177 1823 c-4 -3 -7 -11 -7 -17 0 -6 5 -5 12 2 6 6 9 14 7 17 -3 3
-9 2 -12 -2z"/>
<path d="M5200 1819 c0 -5 5 -7 10 -4 6 3 10 8 10 11 0 2 -4 4 -10 4 -5 0 -10
-5 -10 -11z"/>
<path d="M4826 1811 c-4 -7 -5 -15 -2 -18 9 -9 19 4 14 18 -4 11 -6 11 -12 0z"/>
<path d="M5255 1810 c3 -5 8 -10 11 -10 2 0 4 5 4 10 0 6 -5 10 -11 10 -5 0
-7 -4 -4 -10z"/>
<path d="M5390 1800 c0 -11 4 -20 9 -20 5 0 7 -10 3 -22 -3 -14 -2 -19 6 -14
7 4 12 14 12 22 0 17 41 19 58 2 6 -6 15 -9 19 -5 7 8 -26 41 -45 45 -7 1 -12
-2 -12 -8 0 -5 -7 -7 -15 -4 -8 4 -12 10 -9 15 3 5 -2 9 -10 9 -9 0 -16 -9
-16 -20z"/>
<path d="M3617 1803 c-4 -3 -7 -11 -7 -17 0 -6 5 -5 12 2 6 6 9 14 7 17 -3 3
-9 2 -12 -2z"/>
<path d="M5536 1802 c-3 -5 1 -9 9 -9 8 0 15 4 15 9 0 4 -4 8 -9 8 -6 0 -12
-4 -15 -8z"/>
<path d="M5320 1781 c0 -5 5 -13 10 -16 6 -3 10 -2 10 4 0 5 -4 13 -10 16 -5
3 -10 2 -10 -4z"/>
<path d="M5675 1780 c-3 -5 1 -10 9 -10 9 0 16 5 16 10 0 6 -4 10 -9 10 -6 0
-13 -4 -16 -10z"/>
<path d="M3575 1760 c-3 -5 -1 -10 4 -10 6 0 11 5 11 10 0 6 -2 10 -4 10 -3 0
-8 -4 -11 -10z"/>
<path d="M2690 1739 c0 -11 5 -17 10 -14 6 3 10 13 10 21 0 8 -4 14 -10 14 -5
0 -10 -9 -10 -21z"/>
<path d="M5305 1740 c3 -5 13 -10 21 -10 8 0 14 5 14 10 0 6 -9 10 -21 10 -11
0 -17 -4 -14 -10z"/>
<path d="M5353 1730 c-2 -24 10 -26 28 -3 10 11 10 14 2 9 -7 -4 -13 -2 -13 3
0 20 -16 11 -17 -9z"/>
<path d="M2770 1725 c-8 -9 -8 -15 -2 -15 12 0 26 19 19 26 -2 2 -10 -2 -17
-11z"/>
<path d="M3595 1729 c-9 -14 -2 -20 14 -10 8 6 9 11 3 15 -6 3 -14 1 -17 -5z"/>
<path d="M5462 1717 c17 -19 26 -23 36 -15 16 14 6 24 -31 33 l-28 7 23 -25z"/>
<path d="M2712 1707 c-22 -23 -29 -47 -14 -47 4 0 15 16 24 35 8 19 15 35 14
35 -2 0 -12 -10 -24 -23z"/>
<path d="M494 1678 c-13 -15 -13 -18 -3 -10 9 7 21 11 25 10 5 -2 10 1 12 7 7
19 -15 15 -34 -7z"/>
<path d="M3377 1663 c-10 -9 -9 -23 2 -23 5 0 11 7 15 15 5 15 -5 20 -17 8z"/>
<path d="M2563 1613 c-18 -7 -16 -23 2 -23 8 0 15 7 15 15 0 8 -1 15 -2 14 -2
0 -9 -3 -15 -6z"/>
<path d="M3820 1539 c0 -5 5 -7 10 -4 6 3 10 8 10 11 0 2 -4 4 -10 4 -5 0 -10
-5 -10 -11z"/>
<path d="M4040 1520 c0 -5 5 -10 10 -10 6 0 10 5 10 10 0 6 -4 10 -10 10 -5 0
-10 -4 -10 -10z"/>
<path d="M4080 1464 c0 -8 5 -12 10 -9 6 3 10 10 10 16 0 5 -4 9 -10 9 -5 0
-10 -7 -10 -16z"/>
<path d="M2415 1391 c-3 -5 -1 -12 5 -16 5 -3 10 1 10 9 0 18 -6 21 -15 7z"/>
<path d="M400 1279 c0 -5 5 -7 10 -4 6 3 10 8 10 11 0 2 -4 4 -10 4 -5 0 -10
-5 -10 -11z"/>
<path d="M2493 1275 c-3 -9 -3 -18 0 -21 9 -9 27 6 27 22 0 19 -19 18 -27 -1z"/>
</g>
</svg>
