<?xml version="1.0" encoding="UTF-8" standalone="yes"?><svg xmlns="http://www.w3.org/2000/svg" xmlns:xlink="http://www.w3.org/1999/xlink" height="535px" style="width:982px;height:535px;" version="1.1" viewBox="0 0 982 535" width="982px"><defs><filter height="300%" id="f1" width="300%" x="-1" y="-1"><feGaussianBlur result="blurOut" stdDeviation="2.0"/><feColorMatrix in="blurOut" result="blurOut2" type="matrix" values="0 0 0 0 0 0 0 0 0 0 0 0 0 0 0 0 0 0 .4 0"/><feOffset dx="4.0" dy="4.0" in="blurOut2" result="blurOut3"/><feBlend in="SourceGraphic" in2="blurOut3" mode="normal"/></filter></defs><g><rect fill="#FEFECE" filter="url(#f1)" height="48" style="stroke: #A80036; stroke-width: 1.5;" width="100" x="283.5" y="117"/><ellipse cx="298.5" cy="133" fill="#B4A7E5" rx="11" ry="11" style="stroke: #A80036; stroke-width: 1.0;"/><path d="M299.4531,129.6406 L299.4531,136.2969 L301.1719,136.2969 Q301.7813,136.2969 302.0469,136.5313 Q302.3125,136.7656 302.3125,137.1563 Q302.3125,137.5313 302.0469,137.7656 Q301.7813,138 301.1719,138 L296.0313,138 Q295.4219,138 295.1563,137.7656 Q294.8906,137.5313 294.8906,137.1406 Q294.8906,136.7656 295.1563,136.5313 Q295.4219,136.2969 296.0313,136.2969 L297.75,136.2969 L297.75,129.6406 L296.0313,129.6406 Q295.4219,129.6406 295.1563,129.4063 Q294.8906,129.1719 294.8906,128.7813 Q294.8906,128.4063 295.1563,128.1719 Q295.4219,127.9375 296.0313,127.9375 L301.1719,127.9375 Q301.7813,127.9375 302.0469,128.1719 Q302.3125,128.4063 302.3125,128.7813 Q302.3125,129.1719 302.0469,129.4063 Q301.7813,129.6406 301.1719,129.6406 L299.4531,129.6406 Z "/><text fill="#000000" font-family="sans-serif" font-size="12" font-style="italic" lengthAdjust="spacingAndGlyphs" textLength="68" x="312.5" y="137.9102">EntryFactory</text><line style="stroke: #A80036; stroke-width: 1.5;" x1="284.5" x2="382.5" y1="149" y2="149"/><line style="stroke: #A80036; stroke-width: 1.5;" x1="284.5" x2="382.5" y1="157" y2="157"/><rect fill="#FEFECE" filter="url(#f1)" height="48" style="stroke: #A80036; stroke-width: 1.5;" width="60" x="370.5" y="8"/><ellipse cx="385.5" cy="24" fill="#B4A7E5" rx="11" ry="11" style="stroke: #A80036; stroke-width: 1.0;"/><path d="M386.4531,20.6406 L386.4531,27.2969 L388.1719,27.2969 Q388.7813,27.2969 389.0469,27.5313 Q389.3125,27.7656 389.3125,28.1563 Q389.3125,28.5313 389.0469,28.7656 Q388.7813,29 388.1719,29 L383.0313,29 Q382.4219,29 382.1563,28.7656 Q381.8906,28.5313 381.8906,28.1406 Q381.8906,27.7656 382.1563,27.5313 Q382.4219,27.2969 383.0313,27.2969 L384.75,27.2969 L384.75,20.6406 L383.0313,20.6406 Q382.4219,20.6406 382.1563,20.4063 Q381.8906,20.1719 381.8906,19.7813 Q381.8906,19.4063 382.1563,19.1719 Q382.4219,18.9375 383.0313,18.9375 L388.1719,18.9375 Q388.7813,18.9375 389.0469,19.1719 Q389.3125,19.4063 389.3125,19.7813 Q389.3125,20.1719 389.0469,20.4063 Q388.7813,20.6406 388.1719,20.6406 L386.4531,20.6406 Z "/><text fill="#000000" font-family="sans-serif" font-size="12" font-style="italic" lengthAdjust="spacingAndGlyphs" textLength="28" x="399.5" y="28.9102">Entry</text><line style="stroke: #A80036; stroke-width: 1.5;" x1="371.5" x2="429.5" y1="40" y2="40"/><line style="stroke: #A80036; stroke-width: 1.5;" x1="371.5" x2="429.5" y1="48" y2="48"/><rect fill="#FEFECE" filter="url(#f1)" height="48" style="stroke: #A80036; stroke-width: 1.5;" width="90" x="303.5" y="243"/><ellipse cx="318.5" cy="259" fill="#ADD1B2" rx="11" ry="11" style="stroke: #A80036; stroke-width: 1.0;"/><path d="M321.2656,254.875 Q321.4219,254.6563 321.6094,254.5469 Q321.7969,254.4375 322.0156,254.4375 Q322.3906,254.4375 322.625,254.6953 Q322.8594,254.9531 322.8594,255.5625 L322.8594,257.0156 Q322.8594,257.625 322.625,257.8906 Q322.3906,258.1563 322.0156,258.1563 Q321.6719,258.1563 321.4688,257.9531 Q321.2656,257.7656 321.1563,257.25 Q321.1094,256.8906 320.9219,256.7031 Q320.5938,256.3281 319.9844,256.1094 Q319.375,255.8906 318.75,255.8906 Q317.9844,255.8906 317.3516,256.2188 Q316.7188,256.5469 316.2266,257.2969 Q315.7344,258.0469 315.7344,259.0781 L315.7344,260.1719 Q315.7344,261.4063 316.625,262.2266 Q317.5156,263.0469 319.1094,263.0469 Q320.0469,263.0469 320.7031,262.7969 Q321.0938,262.6406 321.5156,262.2031 Q321.7813,261.9375 321.9297,261.8594 Q322.0781,261.7813 322.2813,261.7813 Q322.6094,261.7813 322.8672,262.0391 Q323.125,262.2969 323.125,262.6406 Q323.125,262.9844 322.7813,263.3906 Q322.2813,263.9688 321.4844,264.2969 Q320.4063,264.75 319.1094,264.75 Q317.5938,264.75 316.3906,264.125 Q315.4063,263.625 314.7188,262.5547 Q314.0313,261.4844 314.0313,260.2031 L314.0313,259.0469 Q314.0313,257.7188 314.6484,256.5703 Q315.2656,255.4219 316.3594,254.8047 Q317.4531,254.1875 318.6875,254.1875 Q319.4219,254.1875 320.0703,254.3516 Q320.7188,254.5156 321.2656,254.875 Z "/><text fill="#000000" font-family="sans-serif" font-size="12" lengthAdjust="spacingAndGlyphs" textLength="58" x="332.5" y="263.9102">RingBuffer</text><line style="stroke: #A80036; stroke-width: 1.5;" x1="304.5" x2="392.5" y1="275" y2="275"/><line style="stroke: #A80036; stroke-width: 1.5;" x1="304.5" x2="392.5" y1="283" y2="283"/><rect fill="#FEFECE" filter="url(#f1)" height="48" style="stroke: #A80036; stroke-width: 1.5;" width="110" x="271.5" y="369"/><ellipse cx="286.5" cy="385" fill="#B4A7E5" rx="11" ry="11" style="stroke: #A80036; stroke-width: 1.0;"/><path d="M287.4531,381.6406 L287.4531,388.2969 L289.1719,388.2969 Q289.7813,388.2969 290.0469,388.5313 Q290.3125,388.7656 290.3125,389.1563 Q290.3125,389.5313 290.0469,389.7656 Q289.7813,390 289.1719,390 L284.0313,390 Q283.4219,390 283.1563,389.7656 Q282.8906,389.5313 282.8906,389.1406 Q282.8906,388.7656 283.1563,388.5313 Q283.4219,388.2969 284.0313,388.2969 L285.75,388.2969 L285.75,381.6406 L284.0313,381.6406 Q283.4219,381.6406 283.1563,381.4063 Q282.8906,381.1719 282.8906,380.7813 Q282.8906,380.4063 283.1563,380.1719 Q283.4219,379.9375 284.0313,379.9375 L289.1719,379.9375 Q289.7813,379.9375 290.0469,380.1719 Q290.3125,380.4063 290.3125,380.7813 Q290.3125,381.1719 290.0469,381.4063 Q289.7813,381.6406 289.1719,381.6406 L287.4531,381.6406 Z "/><text fill="#000000" font-family="sans-serif" font-size="12" font-style="italic" lengthAdjust="spacingAndGlyphs" textLength="78" x="300.5" y="389.9102">ClaimStrategy</text><line style="stroke: #A80036; stroke-width: 1.5;" x1="272.5" x2="380.5" y1="401" y2="401"/><line style="stroke: #A80036; stroke-width: 1.5;" x1="272.5" x2="380.5" y1="409" y2="409"/><rect fill="#FEFECE" filter="url(#f1)" height="48" style="stroke: #A80036; stroke-width: 1.5;" width="197" x="228" y="478"/><ellipse cx="243" cy="494" fill="#ADD1B2" rx="11" ry="11" style="stroke: #A80036; stroke-width: 1.0;"/><path d="M245.7656,489.875 Q245.9219,489.6563 246.1094,489.5469 Q246.2969,489.4375 246.5156,489.4375 Q246.8906,489.4375 247.125,489.6953 Q247.3594,489.9531 247.3594,490.5625 L247.3594,492.0156 Q247.3594,492.625 247.125,492.8906 Q246.8906,493.1563 246.5156,493.1563 Q246.1719,493.1563 245.9688,492.9531 Q245.7656,492.7656 245.6563,492.25 Q245.6094,491.8906 245.4219,491.7031 Q245.0938,491.3281 244.4844,491.1094 Q243.875,490.8906 243.25,490.8906 Q242.4844,490.8906 241.8516,491.2188 Q241.2188,491.5469 240.7266,492.2969 Q240.2344,493.0469 240.2344,494.0781 L240.2344,495.1719 Q240.2344,496.4063 241.125,497.2266 Q242.0156,498.0469 243.6094,498.0469 Q244.5469,498.0469 245.2031,497.7969 Q245.5938,497.6406 246.0156,497.2031 Q246.2813,496.9375 246.4297,496.8594 Q246.5781,496.7813 246.7813,496.7813 Q247.1094,496.7813 247.3672,497.0391 Q247.625,497.2969 247.625,497.6406 Q247.625,497.9844 247.2813,498.3906 Q246.7813,498.9688 245.9844,499.2969 Q244.9063,499.75 243.6094,499.75 Q242.0938,499.75 240.8906,499.125 Q239.9063,498.625 239.2188,497.5547 Q238.5313,496.4844 238.5313,495.2031 L238.5313,494.0469 Q238.5313,492.7188 239.1484,491.5703 Q239.7656,490.4219 240.8594,489.8047 Q241.9531,489.1875 243.1875,489.1875 Q243.9219,489.1875 244.5703,489.3516 Q245.2188,489.5156 245.7656,489.875 Z "/><text fill="#000000" font-family="sans-serif" font-size="12" lengthAdjust="spacingAndGlyphs" textLength="165" x="257" y="498.9102">SingleThreadedClaimStrategy</text><line style="stroke: #A80036; stroke-width: 1.5;" x1="229" x2="424" y1="510" y2="510"/><line style="stroke: #A80036; stroke-width: 1.5;" x1="229" x2="424" y1="518" y2="518"/><rect fill="#FEFECE" filter="url(#f1)" height="48" style="stroke: #A80036; stroke-width: 1.5;" width="187" x="6" y="478"/><ellipse cx="21" cy="494" fill="#ADD1B2" rx="11" ry="11" style="stroke: #A80036; stroke-width: 1.0;"/><path d="M23.7656,489.875 Q23.9219,489.6563 24.1094,489.5469 Q24.2969,489.4375 24.5156,489.4375 Q24.8906,489.4375 25.125,489.6953 Q25.3594,489.9531 25.3594,490.5625 L25.3594,492.0156 Q25.3594,492.625 25.125,492.8906 Q24.8906,493.1563 24.5156,493.1563 Q24.1719,493.1563 23.9688,492.9531 Q23.7656,492.7656 23.6563,492.25 Q23.6094,491.8906 23.4219,491.7031 Q23.0938,491.3281 22.4844,491.1094 Q21.875,490.8906 21.25,490.8906 Q20.4844,490.8906 19.8516,491.2188 Q19.2188,491.5469 18.7266,492.2969 Q18.2344,493.0469 18.2344,494.0781 L18.2344,495.1719 Q18.2344,496.4063 19.125,497.2266 Q20.0156,498.0469 21.6094,498.0469 Q22.5469,498.0469 23.2031,497.7969 Q23.5938,497.6406 24.0156,497.2031 Q24.2813,496.9375 24.4297,496.8594 Q24.5781,496.7813 24.7813,496.7813 Q25.1094,496.7813 25.3672,497.0391 Q25.625,497.2969 25.625,497.6406 Q25.625,497.9844 25.2813,498.3906 Q24.7813,498.9688 23.9844,499.2969 Q22.9063,499.75 21.6094,499.75 Q20.0938,499.75 18.8906,499.125 Q17.9063,498.625 17.2188,497.5547 Q16.5313,496.4844 16.5313,495.2031 L16.5313,494.0469 Q16.5313,492.7188 17.1484,491.5703 Q17.7656,490.4219 18.8594,489.8047 Q19.9531,489.1875 21.1875,489.1875 Q21.9219,489.1875 22.5703,489.3516 Q23.2188,489.5156 23.7656,489.875 Z "/><text fill="#000000" font-family="sans-serif" font-size="12" lengthAdjust="spacingAndGlyphs" textLength="155" x="35" y="498.9102">MultiThreadedClaimStrategy</text><line style="stroke: #A80036; stroke-width: 1.5;" x1="7" x2="192" y1="510" y2="510"/><line style="stroke: #A80036; stroke-width: 1.5;" x1="7" x2="192" y1="518" y2="518"/><rect fill="#FEFECE" filter="url(#f1)" height="48" style="stroke: #A80036; stroke-width: 1.5;" width="101" x="586" y="369"/><ellipse cx="601" cy="385" fill="#B4A7E5" rx="11" ry="11" style="stroke: #A80036; stroke-width: 1.0;"/><path d="M601.9531,381.6406 L601.9531,388.2969 L603.6719,388.2969 Q604.2813,388.2969 604.5469,388.5313 Q604.8125,388.7656 604.8125,389.1563 Q604.8125,389.5313 604.5469,389.7656 Q604.2813,390 603.6719,390 L598.5313,390 Q597.9219,390 597.6563,389.7656 Q597.3906,389.5313 597.3906,389.1406 Q597.3906,388.7656 597.6563,388.5313 Q597.9219,388.2969 598.5313,388.2969 L600.25,388.2969 L600.25,381.6406 L598.5313,381.6406 Q597.9219,381.6406 597.6563,381.4063 Q597.3906,381.1719 597.3906,380.7813 Q597.3906,380.4063 597.6563,380.1719 Q597.9219,379.9375 598.5313,379.9375 L603.6719,379.9375 Q604.2813,379.9375 604.5469,380.1719 Q604.8125,380.4063 604.8125,380.7813 Q604.8125,381.1719 604.5469,381.4063 Q604.2813,381.6406 603.6719,381.6406 L601.9531,381.6406 Z "/><text fill="#000000" font-family="sans-serif" font-size="12" font-style="italic" lengthAdjust="spacingAndGlyphs" textLength="69" x="615" y="389.9102">WaitStrategy</text><line style="stroke: #A80036; stroke-width: 1.5;" x1="587" x2="686" y1="401" y2="401"/><line style="stroke: #A80036; stroke-width: 1.5;" x1="587" x2="686" y1="409" y2="409"/><rect fill="#FEFECE" filter="url(#f1)" height="48" style="stroke: #A80036; stroke-width: 1.5;" width="152" x="642.5" y="478"/><ellipse cx="657.5" cy="494" fill="#ADD1B2" rx="11" ry="11" style="stroke: #A80036; stroke-width: 1.0;"/><path d="M660.2656,489.875 Q660.4219,489.6563 660.6094,489.5469 Q660.7969,489.4375 661.0156,489.4375 Q661.3906,489.4375 661.625,489.6953 Q661.8594,489.9531 661.8594,490.5625 L661.8594,492.0156 Q661.8594,492.625 661.625,492.8906 Q661.3906,493.1563 661.0156,493.1563 Q660.6719,493.1563 660.4688,492.9531 Q660.2656,492.7656 660.1563,492.25 Q660.1094,491.8906 659.9219,491.7031 Q659.5938,491.3281 658.9844,491.1094 Q658.375,490.8906 657.75,490.8906 Q656.9844,490.8906 656.3516,491.2188 Q655.7188,491.5469 655.2266,492.2969 Q654.7344,493.0469 654.7344,494.0781 L654.7344,495.1719 Q654.7344,496.4063 655.625,497.2266 Q656.5156,498.0469 658.1094,498.0469 Q659.0469,498.0469 659.7031,497.7969 Q660.0938,497.6406 660.5156,497.2031 Q660.7813,496.9375 660.9297,496.8594 Q661.0781,496.7813 661.2813,496.7813 Q661.6094,496.7813 661.8672,497.0391 Q662.125,497.2969 662.125,497.6406 Q662.125,497.9844 661.7813,498.3906 Q661.2813,498.9688 660.4844,499.2969 Q659.4063,499.75 658.1094,499.75 Q656.5938,499.75 655.3906,499.125 Q654.4063,498.625 653.7188,497.5547 Q653.0313,496.4844 653.0313,495.2031 L653.0313,494.0469 Q653.0313,492.7188 653.6484,491.5703 Q654.2656,490.4219 655.3594,489.8047 Q656.4531,489.1875 657.6875,489.1875 Q658.4219,489.1875 659.0703,489.3516 Q659.7188,489.5156 660.2656,489.875 Z "/><text fill="#000000" font-family="sans-serif" font-size="12" lengthAdjust="spacingAndGlyphs" textLength="120" x="671.5" y="498.9102">BusySpinWaitStrategy</text><line style="stroke: #A80036; stroke-width: 1.5;" x1="643.5" x2="793.5" y1="510" y2="510"/><line style="stroke: #A80036; stroke-width: 1.5;" x1="643.5" x2="793.5" y1="518" y2="518"/><rect fill="#FEFECE" filter="url(#f1)" height="48" style="stroke: #A80036; stroke-width: 1.5;" width="144" x="829.5" y="478"/><ellipse cx="844.5" cy="494" fill="#ADD1B2" rx="11" ry="11" style="stroke: #A80036; stroke-width: 1.0;"/><path d="M847.2656,489.875 Q847.4219,489.6563 847.6094,489.5469 Q847.7969,489.4375 848.0156,489.4375 Q848.3906,489.4375 848.625,489.6953 Q848.8594,489.9531 848.8594,490.5625 L848.8594,492.0156 Q848.8594,492.625 848.625,492.8906 Q848.3906,493.1563 848.0156,493.1563 Q847.6719,493.1563 847.4688,492.9531 Q847.2656,492.7656 847.1563,492.25 Q847.1094,491.8906 846.9219,491.7031 Q846.5938,491.3281 845.9844,491.1094 Q845.375,490.8906 844.75,490.8906 Q843.9844,490.8906 843.3516,491.2188 Q842.7188,491.5469 842.2266,492.2969 Q841.7344,493.0469 841.7344,494.0781 L841.7344,495.1719 Q841.7344,496.4063 842.625,497.2266 Q843.5156,498.0469 845.1094,498.0469 Q846.0469,498.0469 846.7031,497.7969 Q847.0938,497.6406 847.5156,497.2031 Q847.7813,496.9375 847.9297,496.8594 Q848.0781,496.7813 848.2813,496.7813 Q848.6094,496.7813 848.8672,497.0391 Q849.125,497.2969 849.125,497.6406 Q849.125,497.9844 848.7813,498.3906 Q848.2813,498.9688 847.4844,499.2969 Q846.4063,499.75 845.1094,499.75 Q843.5938,499.75 842.3906,499.125 Q841.4063,498.625 840.7188,497.5547 Q840.0313,496.4844 840.0313,495.2031 L840.0313,494.0469 Q840.0313,492.7188 840.6484,491.5703 Q841.2656,490.4219 842.3594,489.8047 Q843.4531,489.1875 844.6875,489.1875 Q845.4219,489.1875 846.0703,489.3516 Q846.7188,489.5156 847.2656,489.875 Z "/><text fill="#000000" font-family="sans-serif" font-size="12" lengthAdjust="spacingAndGlyphs" textLength="112" x="858.5" y="498.9102">YieldingWaitStrategy</text><line style="stroke: #A80036; stroke-width: 1.5;" x1="830.5" x2="972.5" y1="510" y2="510"/><line style="stroke: #A80036; stroke-width: 1.5;" x1="830.5" x2="972.5" y1="518" y2="518"/><rect fill="#FEFECE" filter="url(#f1)" height="48" style="stroke: #A80036; stroke-width: 1.5;" width="147" x="460" y="478"/><ellipse cx="475" cy="494" fill="#ADD1B2" rx="11" ry="11" style="stroke: #A80036; stroke-width: 1.0;"/><path d="M477.7656,489.875 Q477.9219,489.6563 478.1094,489.5469 Q478.2969,489.4375 478.5156,489.4375 Q478.8906,489.4375 479.125,489.6953 Q479.3594,489.9531 479.3594,490.5625 L479.3594,492.0156 Q479.3594,492.625 479.125,492.8906 Q478.8906,493.1563 478.5156,493.1563 Q478.1719,493.1563 477.9688,492.9531 Q477.7656,492.7656 477.6563,492.25 Q477.6094,491.8906 477.4219,491.7031 Q477.0938,491.3281 476.4844,491.1094 Q475.875,490.8906 475.25,490.8906 Q474.4844,490.8906 473.8516,491.2188 Q473.2188,491.5469 472.7266,492.2969 Q472.2344,493.0469 472.2344,494.0781 L472.2344,495.1719 Q472.2344,496.4063 473.125,497.2266 Q474.0156,498.0469 475.6094,498.0469 Q476.5469,498.0469 477.2031,497.7969 Q477.5938,497.6406 478.0156,497.2031 Q478.2813,496.9375 478.4297,496.8594 Q478.5781,496.7813 478.7813,496.7813 Q479.1094,496.7813 479.3672,497.0391 Q479.625,497.2969 479.625,497.6406 Q479.625,497.9844 479.2813,498.3906 Q478.7813,498.9688 477.9844,499.2969 Q476.9063,499.75 475.6094,499.75 Q474.0938,499.75 472.8906,499.125 Q471.9063,498.625 471.2188,497.5547 Q470.5313,496.4844 470.5313,495.2031 L470.5313,494.0469 Q470.5313,492.7188 471.1484,491.5703 Q471.7656,490.4219 472.8594,489.8047 Q473.9531,489.1875 475.1875,489.1875 Q475.9219,489.1875 476.5703,489.3516 Q477.2188,489.5156 477.7656,489.875 Z "/><text fill="#000000" font-family="sans-serif" font-size="12" lengthAdjust="spacingAndGlyphs" textLength="115" x="489" y="498.9102">BlockingWaitStrategy</text><line style="stroke: #A80036; stroke-width: 1.5;" x1="461" x2="606" y1="510" y2="510"/><line style="stroke: #A80036; stroke-width: 1.5;" x1="461" x2="606" y1="518" y2="518"/><rect fill="#FEFECE" filter="url(#f1)" height="48" style="stroke: #A80036; stroke-width: 1.5;" width="119" x="100" y="117"/><ellipse cx="115" cy="133" fill="#B4A7E5" rx="11" ry="11" style="stroke: #A80036; stroke-width: 1.0;"/><path d="M115.9531,129.6406 L115.9531,136.2969 L117.6719,136.2969 Q118.2813,136.2969 118.5469,136.5313 Q118.8125,136.7656 118.8125,137.1563 Q118.8125,137.5313 118.5469,137.7656 Q118.2813,138 117.6719,138 L112.5313,138 Q111.9219,138 111.6563,137.7656 Q111.3906,137.5313 111.3906,137.1406 Q111.3906,136.7656 111.6563,136.5313 Q111.9219,136.2969 112.5313,136.2969 L114.25,136.2969 L114.25,129.6406 L112.5313,129.6406 Q111.9219,129.6406 111.6563,129.4063 Q111.3906,129.1719 111.3906,128.7813 Q111.3906,128.4063 111.6563,128.1719 Q111.9219,127.9375 112.5313,127.9375 L117.6719,127.9375 Q118.2813,127.9375 118.5469,128.1719 Q118.8125,128.4063 118.8125,128.7813 Q118.8125,129.1719 118.5469,129.4063 Q118.2813,129.6406 117.6719,129.6406 L115.9531,129.6406 Z "/><text fill="#000000" font-family="sans-serif" font-size="12" font-style="italic" lengthAdjust="spacingAndGlyphs" textLength="87" x="129" y="137.9102">ProducerBarrier</text><line style="stroke: #A80036; stroke-width: 1.5;" x1="101" x2="218" y1="149" y2="149"/><line style="stroke: #A80036; stroke-width: 1.5;" x1="101" x2="218" y1="157" y2="157"/><rect fill="#FEFECE" filter="url(#f1)" height="48" style="stroke: #A80036; stroke-width: 1.5;" width="127" x="87" y="369"/><ellipse cx="102" cy="385" fill="#B4A7E5" rx="11" ry="11" style="stroke: #A80036; stroke-width: 1.0;"/><path d="M102.9531,381.6406 L102.9531,388.2969 L104.6719,388.2969 Q105.2813,388.2969 105.5469,388.5313 Q105.8125,388.7656 105.8125,389.1563 Q105.8125,389.5313 105.5469,389.7656 Q105.2813,390 104.6719,390 L99.5313,390 Q98.9219,390 98.6563,389.7656 Q98.3906,389.5313 98.3906,389.1406 Q98.3906,388.7656 98.6563,388.5313 Q98.9219,388.2969 99.5313,388.2969 L101.25,388.2969 L101.25,381.6406 L99.5313,381.6406 Q98.9219,381.6406 98.6563,381.4063 Q98.3906,381.1719 98.3906,380.7813 Q98.3906,380.4063 98.6563,380.1719 Q98.9219,379.9375 99.5313,379.9375 L104.6719,379.9375 Q105.2813,379.9375 105.5469,380.1719 Q105.8125,380.4063 105.8125,380.7813 Q105.8125,381.1719 105.5469,381.4063 Q105.2813,381.6406 104.6719,381.6406 L102.9531,381.6406 Z "/><text fill="#000000" font-family="sans-serif" font-size="12" font-style="italic" lengthAdjust="spacingAndGlyphs" textLength="95" x="116" y="389.9102">ConsumerBarrier</text><line style="stroke: #A80036; stroke-width: 1.5;" x1="88" x2="213" y1="401" y2="401"/><line style="stroke: #A80036; stroke-width: 1.5;" x1="88" x2="213" y1="409" y2="409"/><rect fill="#FEFECE" filter="url(#f1)" height="48" style="stroke: #A80036; stroke-width: 1.5;" width="90" x="99.5" y="243"/><ellipse cx="114.5" cy="259" fill="#B4A7E5" rx="11" ry="11" style="stroke: #A80036; stroke-width: 1.0;"/><path d="M115.4531,255.6406 L115.4531,262.2969 L117.1719,262.2969 Q117.7813,262.2969 118.0469,262.5313 Q118.3125,262.7656 118.3125,263.1563 Q118.3125,263.5313 118.0469,263.7656 Q117.7813,264 117.1719,264 L112.0313,264 Q111.4219,264 111.1563,263.7656 Q110.8906,263.5313 110.8906,263.1406 Q110.8906,262.7656 111.1563,262.5313 Q111.4219,262.2969 112.0313,262.2969 L113.75,262.2969 L113.75,255.6406 L112.0313,255.6406 Q111.4219,255.6406 111.1563,255.4063 Q110.8906,255.1719 110.8906,254.7813 Q110.8906,254.4063 111.1563,254.1719 Q111.4219,253.9375 112.0313,253.9375 L117.1719,253.9375 Q117.7813,253.9375 118.0469,254.1719 Q118.3125,254.4063 118.3125,254.7813 Q118.3125,255.1719 118.0469,255.4063 Q117.7813,255.6406 117.1719,255.6406 L115.4531,255.6406 Z "/><text fill="#000000" font-family="sans-serif" font-size="12" font-style="italic" lengthAdjust="spacingAndGlyphs" textLength="58" x="128.5" y="263.9102">Consumer</text><line style="stroke: #A80036; stroke-width: 1.5;" x1="100.5" x2="188.5" y1="275" y2="275"/><line style="stroke: #A80036; stroke-width: 1.5;" x1="100.5" x2="188.5" y1="283" y2="283"/><path d="M336.904,170.136 C339.554,192.043 343.188,222.088 345.678,242.67 " fill="none" style="stroke: #A80036; stroke-width: 1.0; stroke-dasharray: 7.0,7.0;"/><polygon fill="#A80036" points="336.286,165.033,333.3975,174.4488,336.8874,169.9967,341.3394,173.4866,336.286,165.033" style="stroke: #A80036; stroke-width: 1.0;"/><text fill="#000000" font-family="sans-serif" font-size="13" lengthAdjust="spacingAndGlyphs" textLength="12" x="343.5" y="209.4951">fill</text><text fill="#000000" font-family="sans-serif" font-size="13" lengthAdjust="spacingAndGlyphs" textLength="7" x="337.137" y="232.3275">1</text><path d="M383.254,60.542 C372.331,77.987 358.363,100.293 348.01,116.828 " fill="none" style="stroke: #A80036; stroke-width: 1.0; stroke-dasharray: 7.0,7.0;"/><polygon fill="#A80036" points="385.962,56.217,377.7952,61.7218,383.3083,60.4547,384.5754,65.9678,385.962,56.217" style="stroke: #A80036; stroke-width: 1.0;"/><path d="M405.049,69.281 C407.323,96.109 408.175,133.327 400.5,165 C394.796,188.539 382.598,212.737 371.449,231.545 " fill="none" style="stroke: #A80036; stroke-width: 1.0;"/><polygon fill="#A80036" points="364.532,242.784,371.0834,239.7709,370.8219,232.5646,364.2705,235.5776,364.532,242.784" style="stroke: #A80036; stroke-width: 1.0;"/><polygon fill="#A80036" points="403.768,56.283,400.6695,65.6318,404.2581,61.2589,408.631,64.8476,403.768,56.283" style="stroke: #A80036; stroke-width: 1.0;"/><line style="stroke: #A80036; stroke-width: 1.0;" x1="404.2581" x2="405.043" y1="61.2589" y2="69.22"/><text fill="#000000" font-family="sans-serif" font-size="13" lengthAdjust="spacingAndGlyphs" textLength="20" x="382.1271" y="77.6899">1..*</text><path d="M342.128,303.914 C339.238,320.205 335.826,339.434 332.929,355.763 " fill="none" style="stroke: #A80036; stroke-width: 1.0;"/><polygon fill="#A80036" points="330.639,368.67,336.1491,360.5068,331.5121,363.7468,328.272,359.1098,330.639,368.67" style="stroke: #A80036; stroke-width: 1.0;"/><line style="stroke: #A80036; stroke-width: 1.0;" x1="331.5121" x2="332.91" y1="363.7468" y2="355.8695"/><polygon fill="#A80036" points="344.414,291.033,339.4272,296.2418,342.3173,302.8484,347.3041,297.6396,344.414,291.033" style="stroke: #A80036; stroke-width: 1.0;"/><text fill="#000000" font-family="sans-serif" font-size="13" lengthAdjust="spacingAndGlyphs" textLength="7" x="335.5649" y="312.379">1</text><text fill="#000000" font-family="sans-serif" font-size="13" lengthAdjust="spacingAndGlyphs" textLength="7" x="323.7948" y="358.3275">1</text><path d="M405.944,292.733 C454.33,313.566 523.447,343.325 573.372,364.82 " fill="none" style="stroke: #A80036; stroke-width: 1.0;"/><polygon fill="#A80036" points="585.627,370.096,578.9417,362.8636,581.0344,368.1192,575.7788,370.2118,585.627,370.096" style="stroke: #A80036; stroke-width: 1.0;"/><line style="stroke: #A80036; stroke-width: 1.0;" x1="581.0344" x2="573.687" y1="368.1192" y2="364.9555"/><polygon fill="#A80036" points="393.817,287.511,397.7467,293.5573,404.8393,292.2554,400.9096,286.2091,393.817,287.511" style="stroke: #A80036; stroke-width: 1.0;"/><text fill="#000000" font-family="sans-serif" font-size="13" lengthAdjust="spacingAndGlyphs" textLength="7" x="401.5972" y="287.0281">1</text><text fill="#000000" font-family="sans-serif" font-size="13" lengthAdjust="spacingAndGlyphs" textLength="7" x="570.9808" y="363.27">1</text><path d="M194.607,165.033 C226.993,186.281 275.031,217.798 308.802,239.955 " fill="none" style="stroke: #A80036; stroke-width: 1.0;"/><polygon fill="#A80036" points="313.261,242.88,307.9295,234.599,309.0802,240.1376,303.5416,241.2882,313.261,242.88" style="stroke: #A80036; stroke-width: 1.0;"/><text fill="#000000" font-family="sans-serif" font-size="13" lengthAdjust="spacingAndGlyphs" textLength="31" x="266.5" y="209.4951">claim</text><text fill="#000000" font-family="sans-serif" font-size="13" lengthAdjust="spacingAndGlyphs" textLength="5" x="197.555" y="186.379">*</text><text fill="#000000" font-family="sans-serif" font-size="13" lengthAdjust="spacingAndGlyphs" textLength="7" x="296.3341" y="232.1894">1</text><path d="M149.836,165.058 C146.49,174.208 143.163,184.933 141.5,195 C139.192,208.97 139.557,224.683 140.661,237.77 " fill="none" style="stroke: #A80036; stroke-width: 1.0;"/><polygon fill="#A80036" points="141.136,242.832,144.2801,233.4985,140.6702,237.8537,136.3149,234.2438,141.136,242.832" style="stroke: #A80036; stroke-width: 1.0;"/><text fill="#000000" font-family="sans-serif" font-size="13" lengthAdjust="spacingAndGlyphs" textLength="89" x="142.5" y="209.4951">track sequence</text><text fill="#000000" font-family="sans-serif" font-size="13" lengthAdjust="spacingAndGlyphs" textLength="22" x="122.7992" y="186.4101">0..1</text><text fill="#000000" font-family="sans-serif" font-size="13" lengthAdjust="spacingAndGlyphs" textLength="20" x="117.7115" y="232.1291">1..*</text><path d="M99.3068,285.7 C74.5097,298.312 51.09,316.908 63.5,339 C69.6176,349.89 78.9813,358.805 89.3344,366.007 " fill="none" style="stroke: #A80036; stroke-width: 1.0; stroke-dasharray: 7.0,7.0;"/><polygon fill="#A80036" points="93.5043,368.784,88.2315,360.4655,89.343,366.0121,83.7964,367.1236,93.5043,368.784" style="stroke: #A80036; stroke-width: 1.0;"/><text fill="#000000" font-family="sans-serif" font-size="13" lengthAdjust="spacingAndGlyphs" textLength="42" x="64.5" y="335.4951">waitFor</text><path d="M145.594,296.073 C146.126,309.127 146.801,324.858 147.5,339 C147.982,348.757 148.579,359.521 149.114,368.785 " fill="none" style="stroke: #A80036; stroke-width: 1.0;"/><polygon fill="#A80036" points="145.389,291.026,141.7574,300.1809,145.5919,296.0219,149.7509,299.8563,145.389,291.026" style="stroke: #A80036; stroke-width: 1.0;"/><text fill="#000000" font-family="sans-serif" font-size="13" lengthAdjust="spacingAndGlyphs" textLength="89" x="148.5" y="335.4951">track sequence</text><text fill="#000000" font-family="sans-serif" font-size="13" lengthAdjust="spacingAndGlyphs" textLength="20" x="123.1682" y="312.3703">0..*</text><text fill="#000000" font-family="sans-serif" font-size="13" lengthAdjust="spacingAndGlyphs" textLength="20" x="126.1963" y="358.0701">0..*</text><path d="M310.785,294.162 C290.72,307.852 265.503,324.693 242.5,339 C226.221,349.125 207.986,359.77 192.069,368.842 " fill="none" style="stroke: #A80036; stroke-width: 1.0;"/><polygon fill="#A80036" points="314.986,291.291,305.2988,293.0681,310.8583,294.1128,309.8136,299.6723,314.986,291.291" style="stroke: #A80036; stroke-width: 1.0;"/><text fill="#000000" font-family="sans-serif" font-size="13" lengthAdjust="spacingAndGlyphs" textLength="42" x="270.5" y="335.4951">waitFor</text><text fill="#000000" font-family="sans-serif" font-size="13" lengthAdjust="spacingAndGlyphs" textLength="7" x="299.4265" y="312.2941">1</text><text fill="#000000" font-family="sans-serif" font-size="13" lengthAdjust="spacingAndGlyphs" textLength="5" x="197.0804" y="358.1417">*</text><path d="M326.5,437.5778 C326.5,451.3622 326.5,466.0574 326.5,477.8279 " fill="none" style="stroke: #A80036; stroke-width: 1.0;"/><polygon fill="none" points="319.5,437.2174,326.5,417.217,333.5,437.2174,319.5,437.2174" style="stroke: #A80036; stroke-width: 1.0;"/><path d="M259.158,425.743 C223.593,442.5068 180.74,462.7063 148.388,477.9557 " fill="none" style="stroke: #A80036; stroke-width: 1.0;"/><polygon fill="none" points="256.448,419.281,277.524,417.086,262.418,431.945,256.448,419.281" style="stroke: #A80036; stroke-width: 1.0;"/><path d="M666.528,433.1832 C678.021,448.1797 690.755,464.7962 700.742,477.8279 " fill="none" style="stroke: #A80036; stroke-width: 1.0;"/><polygon fill="none" points="660.902,437.3499,654.293,417.217,672.014,428.834,660.902,437.3499" style="stroke: #A80036; stroke-width: 1.0;"/><path d="M705.891,422.018 C749.04,439.4408 803.841,461.5678 844.454,477.9665 " fill="none" style="stroke: #A80036; stroke-width: 1.0;"/><polygon fill="none" points="703.206,428.4831,687.281,414.504,708.447,415.501,703.206,428.4831" style="stroke: #A80036; stroke-width: 1.0;"/><path d="M600.174,431.7371 C585.381,447.1039 568.755,464.3759 555.806,477.8279 " fill="none" style="stroke: #A80036; stroke-width: 1.0;"/><polygon fill="none" points="595.237,426.7717,614.151,417.217,605.323,436.4809,595.237,426.7717" style="stroke: #A80036; stroke-width: 1.0;"/></g></svg>